  0
SECTION
  2
HEADER
  9
$ACADVER
  1
AC1021
  9
$ACADMAINTVER
 70
    25
  9
$DWGCODEPAGE
  3
ANSI_936
  9
$INSBASE
 10
0.0
 20
0.0
 30
0.0
  9
$EXTMIN
 10
-219.5744
 20
-69.6405
 30
0.0
  9
$EXTMAX
 10
171.1111
 20
180.5618
 30
0.0
  9
$LIMMIN
 10
0.0
 20
0.0
  9
$LIMMAX
 10
12.0
 20
9.0
  9
$ORTHOMODE
 70
     0
  9
$REGENMODE
 70
     1
  9
$FILLMODE
 70
     1
  9
$QTEXTMODE
 70
     0
  9
$MIRRTEXT
 70
     1
  9
$LTSCALE
 40
1.0
  9
$ATTMODE
 70
     1
  9
$TEXTSIZE
 40
0.2
  9
$TRACEWID
 40
0.05
  9
$TEXTSTYLE
  7
Standard
  9
$CLAYER
  8
0
  9
$CELTYPE
  6
ByLayer
  9
$CECOLOR
 62
   256
  9
$CELTSCALE
 40
1.0
  9
$DISPSILH
 70
     0
  9
$DIMSCALE
 40
1.0
  9
$DIMASZ
 40
0.18
  9
$DIMEXO
 40
0.0625
  9
$DIMDLI
 40
0.38
  9
$DIMRND
 40
0.0
  9
$DIMDLE
 40
0.0
  9
$DIMEXE
 40
0.18
  9
$DIMTP
 40
0.0
  9
$DIMTM
 40
0.0
  9
$DIMTXT
 40
0.18
  9
$DIMCEN
 40
0.09
  9
$DIMTSZ
 40
0.0
  9
$DIMTOL
 70
     0
  9
$DIMLIM
 70
     0
  9
$DIMTIH
 70
     1
  9
$DIMTOH
 70
     1
  9
$DIMSE1
 70
     0
  9
$DIMSE2
 70
     0
  9
$DIMTAD
 70
     0
  9
$DIMZIN
 70
     0
  9
$DIMBLK
  1

  9
$DIMASO
 70
     1
  9
$DIMSHO
 70
     1
  9
$DIMPOST
  1

  9
$DIMAPOST
  1

  9
$DIMALT
 70
     0
  9
$DIMALTD
 70
     2
  9
$DIMALTF
 40
25.4
  9
$DIMLFAC
 40
1.0
  9
$DIMTOFL
 70
     0
  9
$DIMTVP
 40
0.0
  9
$DIMTIX
 70
     0
  9
$DIMSOXD
 70
     0
  9
$DIMSAH
 70
     0
  9
$DIMBLK1
  1

  9
$DIMBLK2
  1

  9
$DIMSTYLE
  2
Standard
  9
$DIMCLRD
 70
     0
  9
$DIMCLRE
 70
     0
  9
$DIMCLRT
 70
     0
  9
$DIMTFAC
 40
1.0
  9
$DIMGAP
 40
0.09
  9
$DIMJUST
 70
     0
  9
$DIMSD1
 70
     0
  9
$DIMSD2
 70
     0
  9
$DIMTOLJ
 70
     1
  9
$DIMTZIN
 70
     0
  9
$DIMALTZ
 70
     0
  9
$DIMALTTZ
 70
     0
  9
$DIMUPT
 70
     0
  9
$DIMDEC
 70
     4
  9
$DIMTDEC
 70
     4
  9
$DIMALTU
 70
     2
  9
$DIMALTTD
 70
     2
  9
$DIMTXSTY
  7
Standard
  9
$DIMAUNIT
 70
     0
  9
$DIMADEC
 70
     0
  9
$DIMALTRND
 40
0.0
  9
$DIMAZIN
 70
     0
  9
$DIMDSEP
 70
    46
  9
$DIMATFIT
 70
     3
  9
$DIMFRAC
 70
     0
  9
$DIMLDRBLK
  1

  9
$DIMLUNIT
 70
     2
  9
$DIMLWD
 70
    -2
  9
$DIMLWE
 70
    -2
  9
$DIMTMOVE
 70
     0
  9
$DIMFXL
 40
1.0
  9
$DIMFXLON
 70
     0
  9
$DIMJOGANG
 40
0.7853981633974483
  9
$DIMTFILL
 70
     0
  9
$DIMTFILLCLR
 70
     0
  9
$DIMARCSYM
 70
     0
  9
$DIMLTYPE
  6

  9
$DIMLTEX1
  6

  9
$DIMLTEX2
  6

  9
$LUNITS
 70
     2
  9
$LUPREC
 70
     4
  9
$SKETCHINC
 40
0.1
  9
$FILLETRAD
 40
0.5
  9
$AUNITS
 70
     0
  9
$AUPREC
 70
     0
  9
$MENU
  1
.
  9
$ELEVATION
 40
0.0
  9
$PELEVATION
 40
0.0
  9
$THICKNESS
 40
0.0
  9
$LIMCHECK
 70
     0
  9
$CHAMFERA
 40
0.5
  9
$CHAMFERB
 40
0.5
  9
$CHAMFERC
 40
1.0
  9
$CHAMFERD
 40
0.0
  9
$SKPOLY
 70
     0
  9
$TDCREATE
 40
2458556.654225602
  9
$TDUCREATE
 40
2458556.320892268
  9
$TDUPDATE
 40
2458556.654226331
  9
$TDUUPDATE
 40
2458556.320892998
  9
$TDINDWG
 40
0.0000000116
  9
$TDUSRTIMER
 40
0.0000000116
  9
$USRTIMER
 70
     1
  9
$ANGBASE
 50
0.0
  9
$ANGDIR
 70
     0
  9
$PDMODE
 70
     0
  9
$PDSIZE
 40
0.0
  9
$PLINEWID
 40
0.0
  9
$SPLFRAME
 70
     0
  9
$SPLINETYPE
 70
     6
  9
$SPLINESEGS
 70
     8
  9
$HANDSEED
  5
DC
  9
$SURFTAB1
 70
     6
  9
$SURFTAB2
 70
     6
  9
$SURFTYPE
 70
     6
  9
$SURFU
 70
     6
  9
$SURFV
 70
     6
  9
$UCSBASE
  2

  9
$UCSNAME
  2

  9
$UCSORG
 10
0.0
 20
0.0
 30
0.0
  9
$UCSXDIR
 10
1.0
 20
0.0
 30
0.0
  9
$UCSYDIR
 10
0.0
 20
1.0
 30
0.0
  9
$UCSORTHOREF
  2

  9
$UCSORTHOVIEW
 70
     0
  9
$UCSORGTOP
 10
0.0
 20
0.0
 30
0.0
  9
$UCSORGBOTTOM
 10
0.0
 20
0.0
 30
0.0
  9
$UCSORGLEFT
 10
0.0
 20
0.0
 30
0.0
  9
$UCSORGRIGHT
 10
0.0
 20
0.0
 30
0.0
  9
$UCSORGFRONT
 10
0.0
 20
0.0
 30
0.0
  9
$UCSORGBACK
 10
0.0
 20
0.0
 30
0.0
  9
$PUCSBASE
  2

  9
$PUCSNAME
  2

  9
$PUCSORG
 10
0.0
 20
0.0
 30
0.0
  9
$PUCSXDIR
 10
1.0
 20
0.0
 30
0.0
  9
$PUCSYDIR
 10
0.0
 20
1.0
 30
0.0
  9
$PUCSORTHOREF
  2

  9
$PUCSORTHOVIEW
 70
     0
  9
$PUCSORGTOP
 10
0.0
 20
0.0
 30
0.0
  9
$PUCSORGBOTTOM
 10
0.0
 20
0.0
 30
0.0
  9
$PUCSORGLEFT
 10
0.0
 20
0.0
 30
0.0
  9
$PUCSORGRIGHT
 10
0.0
 20
0.0
 30
0.0
  9
$PUCSORGFRONT
 10
0.0
 20
0.0
 30
0.0
  9
$PUCSORGBACK
 10
0.0
 20
0.0
 30
0.0
  9
$USERI1
 70
     0
  9
$USERI2
 70
     0
  9
$USERI3
 70
     0
  9
$USERI4
 70
     0
  9
$USERI5
 70
     0
  9
$USERR1
 40
0.0
  9
$USERR2
 40
0.0
  9
$USERR3
 40
0.0
  9
$USERR4
 40
0.0
  9
$USERR5
 40
0.0
  9
$WORLDVIEW
 70
     1
  9
$SHADEDGE
 70
     3
  9
$SHADEDIF
 70
    70
  9
$TILEMODE
 70
     1
  9
$MAXACTVP
 70
    64
  9
$PINSBASE
 10
0.0
 20
0.0
 30
0.0
  9
$PLIMCHECK
 70
     0
  9
$PEXTMIN
 10
1.000000000000000E+20
 20
1.000000000000000E+20
 30
1.000000000000000E+20
  9
$PEXTMAX
 10
-1.000000000000000E+20
 20
-1.000000000000000E+20
 30
-1.000000000000000E+20
  9
$PLIMMIN
 10
0.0
 20
0.0
  9
$PLIMMAX
 10
12.0
 20
9.0
  9
$UNITMODE
 70
     0
  9
$VISRETAIN
 70
     1
  9
$PLINEGEN
 70
     0
  9
$PSLTSCALE
 70
     1
  9
$TREEDEPTH
 70
  3020
  9
$CMLSTYLE
  2
Standard
  9
$CMLJUST
 70
     0
  9
$CMLSCALE
 40
1.0
  9
$PROXYGRAPHICS
 70
     1
  9
$MEASUREMENT
 70
     0
  9
$CELWEIGHT
370
    -1
  9
$ENDCAPS
280
     0
  9
$JOINSTYLE
280
     0
  9
$LWDISPLAY
290
     0
  9
$INSUNITS
 70
     4
  9
$HYPERLINKBASE
  1

  9
$STYLESHEET
  1

  9
$XEDIT
290
     1
  9
$CEPSNTYPE
380
     0
  9
$PSTYLEMODE
290
     1
  9
$FINGERPRINTGUID
  2
{6354EFC5-6C8E-4722-A179-FA3C76616920}
  9
$VERSIONGUID
  2
{FAEB1C32-E019-11D5-929B-00C0DF256EC4}
  9
$EXTNAMES
290
     1
  9
$PSVPSCALE
 40
0.0
  9
$OLESTARTUP
290
     0
  9
$SORTENTS
280
   127
  9
$INDEXCTL
280
     0
  9
$HIDETEXT
280
     1
  9
$XCLIPFRAME
290
     0
  9
$HALOGAP
280
     0
  9
$OBSCOLOR
 70
   257
  9
$OBSLTYPE
280
     0
  9
$INTERSECTIONDISPLAY
280
     0
  9
$INTERSECTIONCOLOR
 70
   257
  9
$DIMASSOC
280
     2
  9
$PROJECTNAME
  1

  9
$CAMERADISPLAY
290
     0
  9
$LENSLENGTH
 40
50.0
  9
$CAMERAHEIGHT
 40
0.0
  9
$STEPSPERSEC
 40
2.0
  9
$STEPSIZE
 40
6.0
  9
$3DDWFPREC
 40
2.0
  9
$PSOLWIDTH
 40
0.25
  9
$PSOLHEIGHT
 40
4.0
  9
$LOFTANG1
 40
1.570796326794897
  9
$LOFTANG2
 40
1.570796326794897
  9
$LOFTMAG1
 40
0.0
  9
$LOFTMAG2
 40
0.0
  9
$LOFTPARAM
 70
     7
  9
$LOFTNORMALS
280
     1
  9
$LATITUDE
 40
37.795
  9
$LONGITUDE
 40
-122.394
  9
$NORTHDIRECTION
 40
0.0
  9
$TIMEZONE
 70
 -8000
  9
$LIGHTGLYPHDISPLAY
280
     1
  9
$TILEMODELIGHTSYNCH
280
     1
  9
$SOLIDHIST
280
     1
  9
$SHOWHIST
280
     1
  9
$DWFFRAME
280
     2
  9
$DGNFRAME
280
     2
  9
$REALWORLDSCALE
290
     1
  9
$INTERFERECOLOR
 62
   256
  9
$CSHADOW
280
     0
  9
$SHADOWPLANELOCATION
 40
0.0
  0
ENDSEC
  0
SECTION
  2
CLASSES
  0
CLASS
  1
ACDBDICTIONARYWDFLT
  2
AcDbDictionaryWithDefault
  3
ObjectDBX Classes
 90
        0
 91
        4
280
     0
281
     0
  0
CLASS
  1
VISUALSTYLE
  2
AcDbVisualStyle
  3
ObjectDBX Classes
 90
     4095
 91
        4
280
     0
281
     0
  0
CLASS
  1
MATERIAL
  2
AcDbMaterial
  3
ObjectDBX Classes
 90
     1153
 91
        4
280
     0
281
     0
  0
ENDSEC
  0
SECTION
  2
TABLES
  0
TABLE
  2
VPORT
  5
8
330
0
100
AcDbSymbolTable
 70
     1
  0
VPORT
  5
29
330
8
100
AcDbSymbolTableRecord
100
AcDbViewportTableRecord
  2
*Active
 70
     0
 10
0.0
 20
0.0
 11
1.0
 21
1.0
 12
10.42990654205607
 22
4.5
 13
0.0
 23
0.0
 14
0.5
 24
0.5
 15
0.5
 25
0.5
 16
0.0
 26
0.0
 36
1.0
 17
0.0
 27
0.0
 37
0.0
 40
9.0
 41
1.972972972850329
 42
50.0
 43
0.0
 44
0.0
 50
0.0
 51
0.0
 71
     0
 72
   100
 73
     1
 74
     3
 75
     0
 76
     0
 77
     0
 78
     0
281
     0
 65
     1
110
0.0
120
0.0
130
0.0
111
1.0
121
0.0
131
0.0
112
0.0
122
1.0
132
0.0
 79
     0
146
0.0
 60
     3
 61
     5
292
     1
282
     1
141
0.0
142
0.0
 63
   250
  0
ENDTAB
  0
TABLE
  2
LTYPE
  5
5
330
0
100
AcDbSymbolTable
 70
     1
  0
LTYPE
  5
14
330
5
100
AcDbSymbolTableRecord
100
AcDbLinetypeTableRecord
  2
ByBlock
 70
     0
  3

 72
    65
 73
     0
 40
0.0
  0
LTYPE
  5
15
330
5
100
AcDbSymbolTableRecord
100
AcDbLinetypeTableRecord
  2
ByLayer
 70
     0
  3

 72
    65
 73
     0
 40
0.0
  0
LTYPE
  5
16
330
5
100
AcDbSymbolTableRecord
100
AcDbLinetypeTableRecord
  2
Continuous
 70
     0
  3
Solid line
 72
    65
 73
     0
 40
0.0
  0
ENDTAB
  0
TABLE
  2
LAYER
  5
2
330
0
100
AcDbSymbolTable
 70
     2
  0
LAYER
  5
10
330
2
100
AcDbSymbolTableRecord
100
AcDbLayerTableRecord
  2
0
 70
     0
 62
     7
  6
Continuous
370
    -3
390
F
347
3E
  0
LAYER
  5
40
330
2
100
AcDbSymbolTableRecord
100
AcDbLayerTableRecord
  2
Layer 1
 70
     0
 62
     7
  6
Continuous
370
    -3
390
F
347
3E
  0
ENDTAB
  0
TABLE
  2
STYLE
  5
3
330
0
100
AcDbSymbolTable
 70
     1
  0
STYLE
  5
11
330
3
100
AcDbSymbolTableRecord
100
AcDbTextStyleTableRecord
  2
Standard
 70
     0
 40
0.0
 41
1.0
 50
0.0
 71
     0
 42
0.2
  3
txt
  4

  0
ENDTAB
  0
TABLE
  2
VIEW
  5
6
330
0
100
AcDbSymbolTable
 70
     0
  0
ENDTAB
  0
TABLE
  2
UCS
  5
7
330
0
100
AcDbSymbolTable
 70
     0
  0
ENDTAB
  0
TABLE
  2
APPID
  5
9
330
0
100
AcDbSymbolTable
 70
     2
  0
APPID
  5
12
330
9
100
AcDbSymbolTableRecord
100
AcDbRegAppTableRecord
  2
ACAD
 70
     0
  0
APPID
  5
3F
330
9
100
AcDbSymbolTableRecord
100
AcDbRegAppTableRecord
  2
ODA
 70
     0
  0
ENDTAB
  0
TABLE
  2
DIMSTYLE
  5
A
330
0
100
AcDbSymbolTable
 70
     1
100
AcDbDimStyleTable
  0
DIMSTYLE
105
27
330
A
100
AcDbSymbolTableRecord
100
AcDbDimStyleTableRecord
  2
Standard
 70
     0
178
     0
340
11
  0
ENDTAB
  0
TABLE
  2
BLOCK_RECORD
  5
1
330
0
100
AcDbSymbolTable
 70
     1
  0
BLOCK_RECORD
  5
1F
330
1
100
AcDbSymbolTableRecord
100
AcDbBlockTableRecord
  2
*Model_Space
340
22
 70
     0
280
     1
281
     0
  0
BLOCK_RECORD
  5
1B
330
1
100
AcDbSymbolTableRecord
100
AcDbBlockTableRecord
  2
*Paper_Space
340
1E
 70
     0
280
     1
281
     0
  0
BLOCK_RECORD
  5
23
330
1
100
AcDbSymbolTableRecord
100
AcDbBlockTableRecord
  2
*Paper_Space0
340
26
 70
     0
280
     1
281
     0
  0
ENDTAB
  0
ENDSEC
  0
SECTION
  2
BLOCKS
  0
BLOCK
  5
20
330
1F
100
AcDbEntity
  8
0
100
AcDbBlockBegin
  2
*Model_Space
 70
     0
 10
0.0
 20
0.0
 30
0.0
  3
*Model_Space
  1

  0
ENDBLK
  5
21
330
1F
100
AcDbEntity
  8
0
100
AcDbBlockEnd
  0
BLOCK
  5
1C
330
1B
100
AcDbEntity
 67
     1
  8
0
100
AcDbBlockBegin
  2
*Paper_Space
 70
     0
 10
0.0
 20
0.0
 30
0.0
  3
*Paper_Space
  1

  0
ENDBLK
  5
1D
330
1B
100
AcDbEntity
 67
     1
  8
0
100
AcDbBlockEnd
  0
BLOCK
  5
24
330
23
100
AcDbEntity
  8
0
100
AcDbBlockBegin
  2
*Paper_Space0
 70
     0
 10
0.0
 20
0.0
 30
0.0
  3
*Paper_Space0
  1

  0
ENDBLK
  5
25
330
23
100
AcDbEntity
  8
0
100
AcDbBlockEnd
  0
ENDSEC
  0
SECTION
  2
ENTITIES
  0
SPLINE
  5
41
330
1F
100
AcDbEntity
  8
Layer 1
 62
   250
370
    20
100
AcDbSpline
210
0.0
220
0.0
230
1.0
 70
    11
 71
     3
 72
    36
 73
    32
 74
     0
 42
0.0000000001
 43
0.0000000001
 12
1.0
 22
0.0
 32
0.0
 13
1.0
 23
0.0
 33
0.0
 40
0.0
 40
0.0
 40
0.0
 40
0.0
 40
0.1111111111111111
 40
0.1111111111111111
 40
0.1111111111111111
 40
0.1111111111111111
 40
0.2222222222222222
 40
0.2222222222222222
 40
0.2222222222222222
 40
0.2222222222222222
 40
0.3333333333333333
 40
0.3333333333333333
 40
0.3333333333333333
 40
0.3333333333333333
 40
0.4444444444444444
 40
0.4444444444444444
 40
0.4444444444444444
 40
0.4444444444444444
 40
0.5555555555555556
 40
0.5555555555555556
 40
0.5555555555555556
 40
0.5555555555555556
 40
0.6666666666666666
 40
0.6666666666666666
 40
0.6666666666666666
 40
0.6666666666666666
 40
0.7777777777777778
 40
0.7777777777777778
 40
0.7777777777777778
 40
0.7777777777777778
 40
1.0
 40
1.0
 40
1.0
 40
1.0
 10
-93.3578
 20
53.608
 30
0.0
 10
-93.3578
 20
53.608
 30
0.0
 10
98.6422
 20
53.608
 30
0.0
 10
98.6422
 20
53.608
 30
0.0
 10
98.6422
 20
53.608
 30
0.0
 10
100.8422
 20
53.608
 30
0.0
 10
102.6422
 20
51.808
 30
0.0
 10
102.6422
 20
49.608
 30
0.0
 10
102.6422
 20
49.608
 30
0.0
 10
102.6422
 20
49.608
 30
0.0
 10
102.6422
 20
-61.8921
 30
0.0
 10
102.6422
 20
-61.8921
 30
0.0
 10
102.6422
 20
-61.8921
 30
0.0
 10
102.6422
 20
-64.092
 30
0.0
 10
100.8422
 20
-65.892
 30
0.0
 10
98.6422
 20
-65.892
 30
0.0
 10
98.6422
 20
-65.892
 30
0.0
 10
98.6422
 20
-65.892
 30
0.0
 10
-93.3578
 20
-65.892
 30
0.0
 10
-93.3578
 20
-65.892
 30
0.0
 10
-93.3578
 20
-65.892
 30
0.0
 10
-95.5578
 20
-65.892
 30
0.0
 10
-97.3578
 20
-64.092
 30
0.0
 10
-97.3578
 20
-61.8921
 30
0.0
 10
-97.3578
 20
-61.8921
 30
0.0
 10
-97.3578
 20
-61.8921
 30
0.0
 10
-97.3578
 20
49.608
 30
0.0
 10
-97.3578
 20
49.608
 30
0.0
 10
-97.3578
 20
49.608
 30
0.0
 10
-97.3578
 20
51.808
 30
0.0
 10
-95.5578
 20
53.608
 30
0.0
 10
-93.3578
 20
53.608
 30
0.0
  0
ELLIPSE
  5
42
330
1F
100
AcDbEntity
  8
Layer 1
 62
   250
370
    20
100
AcDbEllipse
 10
-54.0338
 20
37.0187
 30
0.0
 11
0.0
 21
8.0
 31
0.0
210
0.0
220
0.0
230
1.0
 40
1.0
 41
0.0
 42
6.283185307179586
  0
LWPOLYLINE
  5
43
330
1F
100
AcDbEntity
  8
Layer 1
 62
   250
370
    20
100
AcDbPolyline
 90
        5
 70
     1
 43
0.0
 10
-18.8294
 20
-7.5401
 10
81.1706
 20
-7.5401
 10
81.1706
 20
42.4599
 10
-18.8294
 20
42.4599
 10
-18.8294
 20
-7.5401
  0
ELLIPSE
  5
44
330
1F
100
AcDbEntity
  8
Layer 1
 62
   250
370
    20
100
AcDbEllipse
 10
1.0174
 20
-14.6964
 30
0.0
 11
0.0
 21
1.6
 31
0.0
210
0.0
220
0.0
230
1.0
 40
1.0
 41
0.0
 42
6.283185307179586
  0
ELLIPSE
  5
45
330
1F
100
AcDbEntity
  8
Layer 1
 62
   250
370
    20
100
AcDbEllipse
 10
68.2005
 20
-14.6964
 30
0.0
 11
0.0
 21
1.6
 31
0.0
210
0.0
220
0.0
230
1.0
 40
1.0
 41
0.0
 42
6.283185307179586
  0
ELLIPSE
  5
46
330
1F
100
AcDbEntity
  8
Layer 1
 62
   250
370
    20
100
AcDbEllipse
 10
-52.7499
 20
-28.4131
 30
0.0
 11
0.0
 21
28.0
 31
0.0
210
0.0
220
0.0
230
1.0
 40
1.0
 41
0.0
 42
6.283185307179586
  0
LWPOLYLINE
  5
47
330
1F
100
AcDbEntity
  8
Layer 1
 62
   250
370
    20
100
AcDbPolyline
 90
        5
 70
     1
 43
0.0
 10
31.3952
 20
-44.6302
 10
51.944
 20
-44.6302
 10
51.944
 20
-12.7272
 10
31.3952
 20
-12.7272
 10
31.3952
 20
-44.6302
  0
LWPOLYLINE
  5
48
330
1F
100
AcDbEntity
  8
Layer 1
 62
   250
370
    20
100
AcDbPolyline
 90
        5
 70
     1
 43
0.0
 10
54.3147
 20
-50.469
 10
69.1313
 20
-50.469
 10
69.1313
 20
-46.659
 10
54.3147
 20
-46.659
 10
54.3147
 20
-50.469
  0
SPLINE
  5
49
330
1F
100
AcDbEntity
  8
Layer 1
 62
   250
370
    20
100
AcDbSpline
210
0.0
220
0.0
230
1.0
 70
    11
 71
     3
 72
    20
 73
    16
 74
     0
 42
0.0000000001
 43
0.0000000001
 12
1.0
 22
0.0
 32
0.0
 13
1.0
 23
0.0
 33
0.0
 40
0.0
 40
0.0
 40
0.0
 40
0.0
 40
0.2
 40
0.2
 40
0.2
 40
0.2
 40
0.4
 40
0.4
 40
0.4
 40
0.4
 40
0.6
 40
0.6
 40
0.6
 40
0.6
 40
1.0
 40
1.0
 40
1.0
 40
1.0
 10
-68.3987
 20
4.2021
 30
0.0
 10
-68.3987
 20
4.2021
 30
0.0
 10
-68.3987
 20
22.2021
 30
0.0
 10
-68.3987
 20
22.2021
 30
0.0
 10
-68.3987
 20
22.2021
 30
0.0
 10
-68.3987
 20
22.2021
 30
0.0
 10
-38.3986
 20
22.2021
 30
0.0
 10
-38.3986
 20
22.2021
 30
0.0
 10
-38.3986
 20
22.2021
 30
0.0
 10
-38.3986
 20
22.2021
 30
0.0
 10
-38.3986
 20
4.2021
 30
0.0
 10
-38.3986
 20
4.2021
 30
0.0
 10
-38.3986
 20
4.2021
 30
0.0
 10
-38.3986
 20
4.2021
 30
0.0
 10
-68.3987
 20
4.2021
 30
0.0
 10
-68.3987
 20
4.2021
 30
0.0
  0
LWPOLYLINE
  5
4A
330
1F
100
AcDbEntity
  8
Layer 1
 62
   250
370
    20
100
AcDbPolyline
 90
        5
 70
     1
 43
0.0
 10
54.6485
 20
-37.5496
 10
56.2359
 20
-37.5496
 10
56.2359
 20
-21.992
 10
54.6485
 20
-21.992
 10
54.6485
 20
-37.5496
  0
LWPOLYLINE
  5
4B
330
1F
100
AcDbEntity
  8
Layer 1
 62
   250
370
    20
100
AcDbPolyline
 90
        5
 70
     1
 43
0.0
 10
57.6486
 20
-37.5496
 10
59.236
 20
-37.5496
 10
59.236
 20
-21.992
 10
57.6486
 20
-21.992
 10
57.6486
 20
-37.5496
  0
LWPOLYLINE
  5
4C
330
1F
100
AcDbEntity
  8
Layer 1
 62
   250
370
    20
100
AcDbPolyline
 90
        5
 70
     1
 43
0.0
 10
60.6486
 20
-37.5496
 10
62.236
 20
-37.5496
 10
62.236
 20
-21.992
 10
60.6486
 20
-21.992
 10
60.6486
 20
-37.5496
  0
LWPOLYLINE
  5
4D
330
1F
100
AcDbEntity
  8
Layer 1
 62
   250
370
    20
100
AcDbPolyline
 90
        5
 70
     1
 43
0.0
 10
63.6486
 20
-37.5496
 10
65.236
 20
-37.5496
 10
65.236
 20
-21.992
 10
63.6486
 20
-21.992
 10
63.6486
 20
-37.5496
  0
LWPOLYLINE
  5
4E
330
1F
100
AcDbEntity
  8
Layer 1
 62
   250
370
    20
100
AcDbPolyline
 90
        5
 70
     1
 43
0.0
 10
66.6486
 20
-37.5496
 10
68.236
 20
-37.5496
 10
68.236
 20
-21.992
 10
66.6486
 20
-21.992
 10
66.6486
 20
-37.5496
  0
ELLIPSE
  5
4F
330
1F
100
AcDbEntity
  8
Layer 1
 62
   250
370
    20
100
AcDbEllipse
 10
5.334
 20
-54.32
 30
0.0
 11
0.0
 21
3.25
 31
0.0
210
0.0
220
0.0
230
1.0
 40
1.0
 41
0.0
 42
6.283185307179586
  0
ELLIPSE
  5
50
330
1F
100
AcDbEntity
  8
Layer 1
 62
   250
370
    20
100
AcDbEllipse
 10
19.685
 20
-54.32
 30
0.0
 11
0.0
 21
3.25
 31
0.0
210
0.0
220
0.0
230
1.0
 40
1.0
 41
0.0
 42
6.283185307179586
  0
ELLIPSE
  5
51
330
1F
100
AcDbEntity
  8
Layer 1
 62
   250
370
    20
100
AcDbEllipse
 10
34.021
 20
-54.32
 30
0.0
 11
0.0
 21
3.25
 31
0.0
210
0.0
220
0.0
230
1.0
 40
1.0
 41
0.0
 42
6.283185307179586
  0
ELLIPSE
  5
52
330
1F
100
AcDbEntity
  8
Layer 1
 62
   250
370
    20
100
AcDbEllipse
 10
48.372
 20
-54.32
 30
0.0
 11
0.0
 21
3.25
 31
0.0
210
0.0
220
0.0
230
1.0
 40
1.0
 41
0.0
 42
6.283185307179586
  0
ELLIPSE
  5
53
330
1F
100
AcDbEntity
  8
Layer 1
 62
   250
370
    20
100
AcDbEllipse
 10
-23.8471
 20
40.6634
 30
0.0
 11
0.0
 21
2.0
 31
0.0
210
0.0
220
0.0
230
1.0
 40
1.0
 41
0.0
 42
6.283185307179586
  0
ELLIPSE
  5
54
330
1F
100
AcDbEntity
  8
Layer 1
 62
   250
370
    20
100
AcDbEllipse
 10
86.1528
 20
40.6634
 30
0.0
 11
0.0
 21
2.25
 31
0.0
210
0.0
220
0.0
230
1.0
 40
1.0
 41
0.0
 42
6.283185307179586
  0
ELLIPSE
  5
55
330
1F
100
AcDbEntity
  8
Layer 1
 62
   250
370
    20
100
AcDbEllipse
 10
-23.8471
 20
-5.8369
 30
0.0
 11
0.0
 21
2.25
 31
0.0
210
0.0
220
0.0
230
1.0
 40
1.0
 41
0.0
 42
6.283185307179586
  0
ELLIPSE
  5
56
330
1F
100
AcDbEntity
  8
Layer 1
 62
   250
370
    20
100
AcDbEllipse
 10
86.1528
 20
-5.8369
 30
0.0
 11
0.0
 21
2.25
 31
0.0
210
0.0
220
0.0
230
1.0
 40
1.0
 41
0.0
 42
6.283185307179586
  0
ELLIPSE
  5
57
330
1F
100
AcDbEntity
  8
Layer 1
 62
   250
370
    20
100
AcDbEllipse
 10
-85.4739
 20
-28.1493
 30
0.0
 11
0.0
 21
1.6001
 31
0.0
210
0.0
220
0.0
230
1.0
 40
1.0
 41
0.0
 42
6.283185307179586
  0
ELLIPSE
  5
58
330
1F
100
AcDbEntity
  8
Layer 1
 62
   250
370
    20
100
AcDbEllipse
 10
-20.0259
 20
-28.4133
 30
0.0
 11
0.0
 21
1.6001
 31
0.0
210
0.0
220
0.0
230
1.0
 40
1.0
 41
0.0
 42
6.283185307179586
  0
SPLINE
  5
59
330
1F
100
AcDbEntity
  8
Layer 1
 62
   250
370
    20
100
AcDbSpline
210
0.0
220
0.0
230
1.0
 70
    11
 71
     3
 72
    20
 73
    16
 74
     0
 42
0.0000000001
 43
0.0000000001
 12
1.0
 22
0.0
 32
0.0
 13
1.0
 23
0.0
 33
0.0
 40
0.0
 40
0.0
 40
0.0
 40
0.0
 40
0.2
 40
0.2
 40
0.2
 40
0.2
 40
0.4
 40
0.4
 40
0.4
 40
0.4
 40
0.6
 40
0.6
 40
0.6
 40
0.6
 40
1.0
 40
1.0
 40
1.0
 40
1.0
 10
-205.904
 20
-43.8012
 30
0.0
 10
-205.904
 20
-43.8012
 30
0.0
 10
-205.904
 20
29.6472
 30
0.0
 10
-205.904
 20
29.6472
 30
0.0
 10
-205.904
 20
29.6472
 30
0.0
 10
-205.904
 20
29.6472
 30
0.0
 10
-172.6723
 20
29.6472
 30
0.0
 10
-172.6723
 20
29.6472
 30
0.0
 10
-172.6723
 20
29.6472
 30
0.0
 10
-172.6723
 20
29.6472
 30
0.0
 10
-172.6723
 20
-43.8012
 30
0.0
 10
-172.6723
 20
-43.8012
 30
0.0
 10
-172.6723
 20
-43.8012
 30
0.0
 10
-172.6723
 20
-43.8012
 30
0.0
 10
-205.904
 20
-43.8012
 30
0.0
 10
-205.904
 20
-43.8012
 30
0.0
  0
SPLINE
  5
5A
330
1F
100
AcDbEntity
  8
Layer 1
 62
   250
370
    20
100
AcDbSpline
210
0.0
220
0.0
230
1.0
 70
    11
 71
     3
 72
    20
 73
    16
 74
     0
 42
0.0000000001
 43
0.0000000001
 12
1.0
 22
0.0
 32
0.0
 13
1.0
 23
0.0
 33
0.0
 40
0.0
 40
0.0
 40
0.0
 40
0.0
 40
0.2
 40
0.2
 40
0.2
 40
0.2
 40
0.4
 40
0.4
 40
0.4
 40
0.4
 40
0.6
 40
0.6
 40
0.6
 40
0.6
 40
1.0
 40
1.0
 40
1.0
 40
1.0
 10
-191.1521
 20
-39.8011
 30
0.0
 10
-191.1521
 20
-38.9174
 30
0.0
 10
-190.4358
 20
-38.2011
 30
0.0
 10
-189.5521
 20
-38.2011
 30
0.0
 10
-189.5521
 20
-38.2011
 30
0.0
 10
-188.6684
 20
-38.2011
 30
0.0
 10
-187.9521
 20
-38.9174
 30
0.0
 10
-187.9521
 20
-39.8011
 30
0.0
 10
-187.9521
 20
-39.8011
 30
0.0
 10
-187.9521
 20
-40.6848
 30
0.0
 10
-188.6684
 20
-41.4011
 30
0.0
 10
-189.5521
 20
-41.4011
 30
0.0
 10
-189.5521
 20
-41.4011
 30
0.0
 10
-190.4358
 20
-41.4011
 30
0.0
 10
-191.1521
 20
-40.6848
 30
0.0
 10
-191.1521
 20
-39.8011
 30
0.0
  0
SPLINE
  5
5B
330
1F
100
AcDbEntity
  8
Layer 1
 62
   250
370
    20
100
AcDbSpline
210
0.0
220
0.0
230
1.0
 70
    11
 71
     3
 72
    20
 73
    16
 74
     0
 42
0.0000000001
 43
0.0000000001
 12
1.0
 22
0.0
 32
0.0
 13
1.0
 23
0.0
 33
0.0
 40
0.0
 40
0.0
 40
0.0
 40
0.0
 40
0.2
 40
0.2
 40
0.2
 40
0.2
 40
0.4
 40
0.4
 40
0.4
 40
0.4
 40
0.6
 40
0.6
 40
0.6
 40
0.6
 40
1.0
 40
1.0
 40
1.0
 40
1.0
 10
-190.8881
 20
25.6469
 30
0.0
 10
-190.8881
 20
26.5306
 30
0.0
 10
-190.1718
 20
27.2469
 30
0.0
 10
-189.2881
 20
27.2469
 30
0.0
 10
-189.2881
 20
27.2469
 30
0.0
 10
-188.4044
 20
27.2469
 30
0.0
 10
-187.6881
 20
26.5306
 30
0.0
 10
-187.6881
 20
25.6469
 30
0.0
 10
-187.6881
 20
25.6469
 30
0.0
 10
-187.6881
 20
24.7632
 30
0.0
 10
-188.4044
 20
24.0469
 30
0.0
 10
-189.2881
 20
24.0469
 30
0.0
 10
-189.2881
 20
24.0469
 30
0.0
 10
-190.1718
 20
24.0469
 30
0.0
 10
-190.8881
 20
24.7632
 30
0.0
 10
-190.8881
 20
25.6469
 30
0.0
  0
SPLINE
  5
5C
330
1F
100
AcDbEntity
  8
Layer 1
 62
   250
370
    20
100
AcDbSpline
210
0.0
220
0.0
230
1.0
 70
    24
 71
     3
 72
     8
 73
     4
 74
     0
 42
0.0000000001
 43
0.0000000001
 12
1.0
 22
0.0
 32
0.0
 13
1.0
 23
0.0
 33
0.0
 40
0.0
 40
0.0
 40
0.0
 40
0.0
 40
1.0
 40
1.0
 40
1.0
 40
1.0
 10
-162.2438
 20
180.1485
 30
0.0
 10
-162.2438
 20
180.1485
 30
0.0
 10
-99.8811
 20
180.1485
 30
0.0
 10
-99.8811
 20
180.1485
 30
0.0
  0
SPLINE
  5
5D
330
1F
100
AcDbEntity
  8
Layer 1
 62
   250
370
    20
100
AcDbSpline
210
0.0
220
0.0
230
1.0
 70
     8
 71
     3
 72
     8
 73
     4
 74
     0
 42
0.0000000001
 43
0.0000000001
 12
1.0
 22
0.0
 32
0.0
 13
1.0
 23
0.0
 33
0.0
 40
0.0
 40
0.0
 40
0.0
 40
0.0
 40
1.0
 40
1.0
 40
1.0
 40
1.0
 10
-99.8811
 20
180.1485
 30
0.0
 10
-98.6985
 20
180.0645
 30
0.0
 10
-98.0319
 20
179.3978
 30
0.0
 10
-97.8812
 20
178.1485
 30
0.0
  0
SPLINE
  5
5E
330
1F
100
AcDbEntity
  8
Layer 1
 62
   250
370
    20
100
AcDbSpline
210
0.0
220
0.0
230
1.0
 70
    24
 71
     3
 72
     8
 73
     4
 74
     0
 42
0.0000000001
 43
0.0000000001
 12
1.0
 22
0.0
 32
0.0
 13
1.0
 23
0.0
 33
0.0
 40
0.0
 40
0.0
 40
0.0
 40
0.0
 40
1.0
 40
1.0
 40
1.0
 40
1.0
 10
-97.8812
 20
178.1485
 30
0.0
 10
-97.8812
 20
178.1485
 30
0.0
 10
-97.8812
 20
76.6679
 30
0.0
 10
-97.8812
 20
76.6679
 30
0.0
  0
SPLINE
  5
5F
330
1F
100
AcDbEntity
  8
Layer 1
 62
   250
370
    20
100
AcDbSpline
210
0.0
220
0.0
230
1.0
 70
     8
 71
     3
 72
     8
 73
     4
 74
     0
 42
0.0000000001
 43
0.0000000001
 12
1.0
 22
0.0
 32
0.0
 13
1.0
 23
0.0
 33
0.0
 40
0.0
 40
0.0
 40
0.0
 40
0.0
 40
1.0
 40
1.0
 40
1.0
 40
1.0
 10
-97.8812
 20
76.6679
 30
0.0
 10
-97.9856
 20
75.4637
 30
0.0
 10
-98.6522
 20
74.7971
 30
0.0
 10
-99.8811
 20
74.6679
 30
0.0
  0
SPLINE
  5
60
330
1F
100
AcDbEntity
  8
Layer 1
 62
   250
370
    20
100
AcDbSpline
210
0.0
220
0.0
230
1.0
 70
    24
 71
     3
 72
     8
 73
     4
 74
     0
 42
0.0000000001
 43
0.0000000001
 12
1.0
 22
0.0
 32
0.0
 13
1.0
 23
0.0
 33
0.0
 40
0.0
 40
0.0
 40
0.0
 40
0.0
 40
1.0
 40
1.0
 40
1.0
 40
1.0
 10
-99.8811
 20
74.6679
 30
0.0
 10
-99.8811
 20
74.6679
 30
0.0
 10
-162.233
 20
74.6679
 30
0.0
 10
-162.233
 20
74.6679
 30
0.0
  0
SPLINE
  5
61
330
1F
100
AcDbEntity
  8
Layer 1
 62
   250
370
    20
100
AcDbSpline
210
0.0
220
0.0
230
1.0
 70
    24
 71
     3
 72
     8
 73
     4
 74
     0
 42
0.0000000001
 43
0.0000000001
 12
1.0
 22
0.0
 32
0.0
 13
1.0
 23
0.0
 33
0.0
 40
0.0
 40
0.0
 40
0.0
 40
0.0
 40
1.0
 40
1.0
 40
1.0
 40
1.0
 10
-162.2438
 20
180.1485
 30
0.0
 10
-162.2438
 20
180.1485
 30
0.0
 10
-162.2328
 20
74.6679
 30
0.0
 10
-162.2328
 20
74.6679
 30
0.0
  0
SPLINE
  5
62
330
1F
100
AcDbEntity
  8
Layer 1
 62
   250
370
    20
100
AcDbSpline
210
0.0
220
0.0
230
1.0
 70
    11
 71
     3
 72
    36
 73
    32
 74
     0
 42
0.0000000001
 43
0.0000000001
 12
1.0
 22
0.0
 32
0.0
 13
1.0
 23
0.0
 33
0.0
 40
0.0
 40
0.0
 40
0.0
 40
0.0
 40
0.1111111111111111
 40
0.1111111111111111
 40
0.1111111111111111
 40
0.1111111111111111
 40
0.2222222222222222
 40
0.2222222222222222
 40
0.2222222222222222
 40
0.2222222222222222
 40
0.3333333333333333
 40
0.3333333333333333
 40
0.3333333333333333
 40
0.3333333333333333
 40
0.4444444444444444
 40
0.4444444444444444
 40
0.4444444444444444
 40
0.4444444444444444
 40
0.5555555555555556
 40
0.5555555555555556
 40
0.5555555555555556
 40
0.5555555555555556
 40
0.6666666666666666
 40
0.6666666666666666
 40
0.6666666666666666
 40
0.6666666666666666
 40
0.7777777777777778
 40
0.7777777777777778
 40
0.7777777777777778
 40
0.7777777777777778
 40
1.0
 40
1.0
 40
1.0
 40
1.0
 10
-104.1959
 20
168.8597
 30
0.0
 10
-104.1959
 20
168.8597
 30
0.0
 10
-110.7795
 20
168.8597
 30
0.0
 10
-110.7795
 20
168.8597
 30
0.0
 10
-110.7795
 20
168.8597
 30
0.0
 10
-111.8795
 20
168.8597
 30
0.0
 10
-112.7795
 20
167.9597
 30
0.0
 10
-112.7795
 20
166.8597
 30
0.0
 10
-112.7795
 20
166.8597
 30
0.0
 10
-112.7795
 20
166.8597
 30
0.0
 10
-112.7795
 20
87.9567
 30
0.0
 10
-112.7795
 20
87.9567
 30
0.0
 10
-112.7795
 20
87.9567
 30
0.0
 10
-112.7795
 20
86.8567
 30
0.0
 10
-111.8795
 20
85.9567
 30
0.0
 10
-110.7795
 20
85.9567
 30
0.0
 10
-110.7795
 20
85.9567
 30
0.0
 10
-110.7795
 20
85.9567
 30
0.0
 10
-104.1959
 20
85.9567
 30
0.0
 10
-104.1959
 20
85.9567
 30
0.0
 10
-104.1959
 20
85.9567
 30
0.0
 10
-103.0959
 20
85.9567
 30
0.0
 10
-102.1959
 20
86.8567
 30
0.0
 10
-102.1959
 20
87.9567
 30
0.0
 10
-102.1959
 20
87.9567
 30
0.0
 10
-102.1959
 20
87.9567
 30
0.0
 10
-102.1959
 20
166.8597
 30
0.0
 10
-102.1959
 20
166.8597
 30
0.0
 10
-102.1959
 20
166.8597
 30
0.0
 10
-102.1959
 20
167.9597
 30
0.0
 10
-103.0959
 20
168.8597
 30
0.0
 10
-104.1959
 20
168.8597
 30
0.0
  0
ELLIPSE
  5
63
330
1F
100
AcDbEntity
  8
Layer 1
 62
   250
370
    20
100
AcDbEllipse
 10
-153.1076
 20
168.8742
 30
0.0
 11
0.0
 21
1.6
 31
0.0
210
0.0
220
0.0
230
1.0
 40
1.0
 41
0.0
 42
6.283185307179586
  0
ELLIPSE
  5
64
330
1F
100
AcDbEntity
  8
Layer 1
 62
   250
370
    20
100
AcDbEllipse
 10
-153.1079
 20
85.9417
 30
0.0
 11
0.0
 21
1.6
 31
0.0
210
0.0
220
0.0
230
1.0
 40
1.0
 41
0.0
 42
6.283185307179586
  0
ELLIPSE
  5
65
330
1F
100
AcDbEntity
  8
Layer 1
 62
   250
370
    20
100
AcDbEllipse
 10
-143.1074
 20
168.8742
 30
0.0
 11
0.0
 21
1.6
 31
0.0
210
0.0
220
0.0
230
1.0
 40
1.0
 41
0.0
 42
6.283185307179586
  0
ELLIPSE
  5
66
330
1F
100
AcDbEntity
  8
Layer 1
 62
   250
370
    20
100
AcDbEllipse
 10
-143.1077
 20
85.9417
 30
0.0
 11
0.0
 21
1.6
 31
0.0
210
0.0
220
0.0
230
1.0
 40
1.0
 41
0.0
 42
6.283185307179586
  0
SPLINE
  5
67
330
1F
100
AcDbEntity
  8
Layer 1
 62
   250
370
    20
100
AcDbSpline
210
0.0
220
0.0
230
1.0
 70
    24
 71
     3
 72
     8
 73
     4
 74
     0
 42
0.0000000001
 43
0.0000000001
 12
1.0
 22
0.0
 32
0.0
 13
1.0
 23
0.0
 33
0.0
 40
0.0
 40
0.0
 40
0.0
 40
0.0
 40
1.0
 40
1.0
 40
1.0
 40
1.0
 10
-97.8496
 20
74.3591
 30
0.0
 10
-97.8496
 20
74.3591
 30
0.0
 10
-160.2123
 20
74.3591
 30
0.0
 10
-160.2123
 20
74.3591
 30
0.0
  0
SPLINE
  5
68
330
1F
100
AcDbEntity
  8
Layer 1
 62
   250
370
    20
100
AcDbSpline
210
0.0
220
0.0
230
1.0
 70
     8
 71
     3
 72
     8
 73
     4
 74
     0
 42
0.0000000001
 43
0.0000000001
 12
1.0
 22
0.0
 32
0.0
 13
1.0
 23
0.0
 33
0.0
 40
0.0
 40
0.0
 40
0.0
 40
0.0
 40
1.0
 40
1.0
 40
1.0
 40
1.0
 10
-160.2123
 20
74.3591
 30
0.0
 10
-161.3949
 20
74.2751
 30
0.0
 10
-162.0615
 20
73.6084
 30
0.0
 10
-162.2122
 20
72.3591
 30
0.0
  0
SPLINE
  5
69
330
1F
100
AcDbEntity
  8
Layer 1
 62
   250
370
    20
100
AcDbSpline
210
0.0
220
0.0
230
1.0
 70
    24
 71
     3
 72
     8
 73
     4
 74
     0
 42
0.0000000001
 43
0.0000000001
 12
1.0
 22
0.0
 32
0.0
 13
1.0
 23
0.0
 33
0.0
 40
0.0
 40
0.0
 40
0.0
 40
0.0
 40
1.0
 40
1.0
 40
1.0
 40
1.0
 10
-162.2122
 20
72.3591
 30
0.0
 10
-162.2122
 20
72.3591
 30
0.0
 10
-162.2122
 20
-29.1215
 30
0.0
 10
-162.2122
 20
-29.1215
 30
0.0
  0
SPLINE
  5
6A
330
1F
100
AcDbEntity
  8
Layer 1
 62
   250
370
    20
100
AcDbSpline
210
0.0
220
0.0
230
1.0
 70
     8
 71
     3
 72
     8
 73
     4
 74
     0
 42
0.0000000001
 43
0.0000000001
 12
1.0
 22
0.0
 32
0.0
 13
1.0
 23
0.0
 33
0.0
 40
0.0
 40
0.0
 40
0.0
 40
0.0
 40
1.0
 40
1.0
 40
1.0
 40
1.0
 10
-162.2122
 20
-29.1215
 30
0.0
 10
-162.1078
 20
-30.3257
 30
0.0
 10
-161.4412
 20
-30.9923
 30
0.0
 10
-160.2123
 20
-31.1215
 30
0.0
  0
SPLINE
  5
6B
330
1F
100
AcDbEntity
  8
Layer 1
 62
   250
370
    20
100
AcDbSpline
210
0.0
220
0.0
230
1.0
 70
    24
 71
     3
 72
     8
 73
     4
 74
     0
 42
0.0000000001
 43
0.0000000001
 12
1.0
 22
0.0
 32
0.0
 13
1.0
 23
0.0
 33
0.0
 40
0.0
 40
0.0
 40
0.0
 40
0.0
 40
1.0
 40
1.0
 40
1.0
 40
1.0
 10
-160.2123
 20
-31.1215
 30
0.0
 10
-160.2123
 20
-31.1215
 30
0.0
 10
-97.8604
 20
-31.1215
 30
0.0
 10
-97.8604
 20
-31.1215
 30
0.0
  0
SPLINE
  5
6C
330
1F
100
AcDbEntity
  8
Layer 1
 62
   250
370
    20
100
AcDbSpline
210
0.0
220
0.0
230
1.0
 70
    24
 71
     3
 72
     8
 73
     4
 74
     0
 42
0.0000000001
 43
0.0000000001
 12
1.0
 22
0.0
 32
0.0
 13
1.0
 23
0.0
 33
0.0
 40
0.0
 40
0.0
 40
0.0
 40
0.0
 40
1.0
 40
1.0
 40
1.0
 40
1.0
 10
-97.8496
 20
74.3591
 30
0.0
 10
-97.8496
 20
74.3591
 30
0.0
 10
-97.8606
 20
-31.1215
 30
0.0
 10
-97.8606
 20
-31.1215
 30
0.0
  0
SPLINE
  5
6D
330
1F
100
AcDbEntity
  8
Layer 1
 62
   250
370
    20
100
AcDbSpline
210
0.0
220
0.0
230
1.0
 70
    11
 71
     3
 72
    36
 73
    32
 74
     0
 42
0.0000000001
 43
0.0000000001
 12
1.0
 22
0.0
 32
0.0
 13
1.0
 23
0.0
 33
0.0
 40
0.0
 40
0.0
 40
0.0
 40
0.0
 40
0.1111111111111111
 40
0.1111111111111111
 40
0.1111111111111111
 40
0.1111111111111111
 40
0.2222222222222222
 40
0.2222222222222222
 40
0.2222222222222222
 40
0.2222222222222222
 40
0.3333333333333333
 40
0.3333333333333333
 40
0.3333333333333333
 40
0.3333333333333333
 40
0.4444444444444444
 40
0.4444444444444444
 40
0.4444444444444444
 40
0.4444444444444444
 40
0.5555555555555556
 40
0.5555555555555556
 40
0.5555555555555556
 40
0.5555555555555556
 40
0.6666666666666666
 40
0.6666666666666666
 40
0.6666666666666666
 40
0.6666666666666666
 40
0.7777777777777778
 40
0.7777777777777778
 40
0.7777777777777778
 40
0.7777777777777778
 40
1.0
 40
1.0
 40
1.0
 40
1.0
 10
-155.8975
 20
63.0703
 30
0.0
 10
-155.8975
 20
63.0703
 30
0.0
 10
-149.3139
 20
63.0703
 30
0.0
 10
-149.3139
 20
63.0703
 30
0.0
 10
-149.3139
 20
63.0703
 30
0.0
 10
-148.2139
 20
63.0703
 30
0.0
 10
-147.3139
 20
62.1703
 30
0.0
 10
-147.3139
 20
61.0703
 30
0.0
 10
-147.3139
 20
61.0703
 30
0.0
 10
-147.3139
 20
61.0703
 30
0.0
 10
-147.3139
 20
-17.8327
 30
0.0
 10
-147.3139
 20
-17.8327
 30
0.0
 10
-147.3139
 20
-17.8327
 30
0.0
 10
-147.3139
 20
-18.9327
 30
0.0
 10
-148.2139
 20
-19.8327
 30
0.0
 10
-149.3139
 20
-19.8327
 30
0.0
 10
-149.3139
 20
-19.8327
 30
0.0
 10
-149.3139
 20
-19.8327
 30
0.0
 10
-155.8975
 20
-19.8327
 30
0.0
 10
-155.8975
 20
-19.8327
 30
0.0
 10
-155.8975
 20
-19.8327
 30
0.0
 10
-156.9975
 20
-19.8327
 30
0.0
 10
-157.8975
 20
-18.9327
 30
0.0
 10
-157.8975
 20
-17.8327
 30
0.0
 10
-157.8975
 20
-17.8327
 30
0.0
 10
-157.8975
 20
-17.8327
 30
0.0
 10
-157.8975
 20
61.0703
 30
0.0
 10
-157.8975
 20
61.0703
 30
0.0
 10
-157.8975
 20
61.0703
 30
0.0
 10
-157.8975
 20
62.1703
 30
0.0
 10
-156.9975
 20
63.0703
 30
0.0
 10
-155.8975
 20
63.0703
 30
0.0
  0
ELLIPSE
  5
6E
330
1F
100
AcDbEntity
  8
Layer 1
 62
   250
370
    20
100
AcDbEllipse
 10
-106.9858
 20
63.0848
 30
0.0
 11
0.0
 21
1.6
 31
0.0
210
0.0
220
0.0
230
1.0
 40
1.0
 41
0.0
 42
6.283185307179586
  0
ELLIPSE
  5
6F
330
1F
100
AcDbEntity
  8
Layer 1
 62
   250
370
    20
100
AcDbEllipse
 10
-106.9855
 20
-19.8477
 30
0.0
 11
0.0
 21
1.6
 31
0.0
210
0.0
220
0.0
230
1.0
 40
1.0
 41
0.0
 42
6.283185307179586
  0
ELLIPSE
  5
70
330
1F
100
AcDbEntity
  8
Layer 1
 62
   250
370
    20
100
AcDbEllipse
 10
-116.986
 20
63.0848
 30
0.0
 11
0.0
 21
1.6
 31
0.0
210
0.0
220
0.0
230
1.0
 40
1.0
 41
0.0
 42
6.283185307179586
  0
ELLIPSE
  5
71
330
1F
100
AcDbEntity
  8
Layer 1
 62
   250
370
    20
100
AcDbEllipse
 10
-116.9857
 20
-19.8477
 30
0.0
 11
0.0
 21
1.6
 31
0.0
210
0.0
220
0.0
230
1.0
 40
1.0
 41
0.0
 42
6.283185307179586
  0
ELLIPSE
  5
72
330
1F
100
AcDbEntity
  8
Layer 1
 62
   250
370
    20
100
AcDbEllipse
 10
-91.3825
 20
47.7943
 30
0.0
 11
0.0
 21
2.9
 31
0.0
210
0.0
220
0.0
230
1.0
 40
1.0
 41
0.0
 42
6.283185307179586
  0
ELLIPSE
  5
73
330
1F
100
AcDbEntity
  8
Layer 1
 62
   250
370
    20
100
AcDbEllipse
 10
-91.3825
 20
-60.2257
 30
0.0
 11
0.0
 21
2.9
 31
0.0
210
0.0
220
0.0
230
1.0
 40
1.0
 41
0.0
 42
6.283185307179586
  0
ELLIPSE
  5
74
330
1F
100
AcDbEntity
  8
Layer 1
 62
   250
370
    20
100
AcDbEllipse
 10
96.6175
 20
47.7943
 30
0.0
 11
0.0
 21
2.9
 31
0.0
210
0.0
220
0.0
230
1.0
 40
1.0
 41
0.0
 42
6.283185307179586
  0
ELLIPSE
  5
75
330
1F
100
AcDbEntity
  8
Layer 1
 62
   250
370
    20
100
AcDbEllipse
 10
96.6175
 20
-60.2257
 30
0.0
 11
0.0
 21
2.9
 31
0.0
210
0.0
220
0.0
230
1.0
 40
1.0
 41
0.0
 42
6.283185307179586
  0
LWPOLYLINE
  5
76
330
1F
100
AcDbEntity
  8
Layer 1
 62
   250
370
    20
100
AcDbPolyline
 90
        5
 70
     1
 43
0.0
 10
-190.8567
 20
30.6717
 10
-162.5305
 20
30.6717
 10
-162.5305
 20
62.5747
 10
-190.8567
 20
62.5747
 10
-190.8567
 20
30.6717
  0
ELLIPSE
  5
77
330
1F
100
AcDbEntity
  8
Layer 1
 62
   250
370
    20
100
AcDbEllipse
 10
-187.4645
 20
57.3128
 30
0.0
 11
0.0
 21
1.6
 31
0.0
210
0.0
220
0.0
230
1.0
 40
1.0
 41
0.0
 42
6.283185307179586
  0
ELLIPSE
  5
78
330
1F
100
AcDbEntity
  8
Layer 1
 62
   250
370
    20
100
AcDbEllipse
 10
-187.4645
 20
35.8739
 30
0.0
 11
0.0
 21
1.6
 31
0.0
210
0.0
220
0.0
230
1.0
 40
1.0
 41
0.0
 42
6.283185307179586
  0
ELLIPSE
  5
79
330
1F
100
AcDbEntity
  8
Layer 1
 62
   250
370
    20
100
AcDbEllipse
 10
27.01
 20
-17.9891
 30
0.0
 11
0.0
 21
1.6
 31
0.0
210
0.0
220
0.0
230
1.0
 40
1.0
 41
0.0
 42
6.283185307179586
  0
ELLIPSE
  5
7A
330
1F
100
AcDbEntity
  8
Layer 1
 62
   250
370
    20
100
AcDbEllipse
 10
27.01
 20
-39.428
 30
0.0
 11
0.0
 21
1.6
 31
0.0
210
0.0
220
0.0
230
1.0
 40
1.0
 41
0.0
 42
6.283185307179586
  0
SPLINE
  5
7B
330
1F
100
AcDbEntity
  8
Layer 1
 62
   250
370
    20
100
AcDbSpline
210
0.0
220
0.0
230
1.0
 70
    11
 71
     3
 72
    36
 73
    32
 74
     0
 42
0.0000000001
 43
0.0000000001
 12
1.0
 22
0.0
 32
0.0
 13
1.0
 23
0.0
 33
0.0
 40
0.0
 40
0.0
 40
0.0
 40
0.0
 40
0.1111111111111111
 40
0.1111111111111111
 40
0.1111111111111111
 40
0.1111111111111111
 40
0.2222222222222222
 40
0.2222222222222222
 40
0.2222222222222222
 40
0.2222222222222222
 40
0.3333333333333333
 40
0.3333333333333333
 40
0.3333333333333333
 40
0.3333333333333333
 40
0.4444444444444444
 40
0.4444444444444444
 40
0.4444444444444444
 40
0.4444444444444444
 40
0.5555555555555556
 40
0.5555555555555556
 40
0.5555555555555556
 40
0.5555555555555556
 40
0.6666666666666666
 40
0.6666666666666666
 40
0.6666666666666666
 40
0.6666666666666666
 40
0.7777777777777778
 40
0.7777777777777778
 40
0.7777777777777778
 40
0.7777777777777778
 40
1.0
 40
1.0
 40
1.0
 40
1.0
 10
102.1251
 20
57.0
 30
0.0
 10
102.1251
 20
57.0
 30
0.0
 10
-89.8749
 20
57.0
 30
0.0
 10
-89.8749
 20
57.0
 30
0.0
 10
-89.8749
 20
57.0
 30
0.0
 10
-92.0749
 20
57.0
 30
0.0
 10
-93.8749
 20
58.8
 30
0.0
 10
-93.8749
 20
61.0
 30
0.0
 10
-93.8749
 20
61.0
 30
0.0
 10
-93.8749
 20
61.0
 30
0.0
 10
-93.8749
 20
172.5001
 30
0.0
 10
-93.8749
 20
172.5001
 30
0.0
 10
-93.8749
 20
172.5001
 30
0.0
 10
-93.8749
 20
174.7
 30
0.0
 10
-92.0749
 20
176.5
 30
0.0
 10
-89.8749
 20
176.5
 30
0.0
 10
-89.8749
 20
176.5
 30
0.0
 10
-89.8749
 20
176.5
 30
0.0
 10
102.1251
 20
176.5
 30
0.0
 10
102.1251
 20
176.5
 30
0.0
 10
102.1251
 20
176.5
 30
0.0
 10
104.3251
 20
176.5
 30
0.0
 10
106.1251
 20
174.7
 30
0.0
 10
106.1251
 20
172.5001
 30
0.0
 10
106.1251
 20
172.5001
 30
0.0
 10
106.1251
 20
172.5001
 30
0.0
 10
106.1251
 20
61.0
 30
0.0
 10
106.1251
 20
61.0
 30
0.0
 10
106.1251
 20
61.0
 30
0.0
 10
106.1251
 20
58.8
 30
0.0
 10
104.3251
 20
57.0
 30
0.0
 10
102.1251
 20
57.0
 30
0.0
  0
SPLINE
  5
7C
330
1F
100
AcDbEntity
  8
Layer 1
 62
   250
370
    20
100
AcDbSpline
210
0.0
220
0.0
230
1.0
 70
    11
 71
     3
 72
    20
 73
    16
 74
     0
 42
0.0000000001
 43
0.0000000001
 12
1.0
 22
0.0
 32
0.0
 13
1.0
 23
0.0
 33
0.0
 40
0.0
 40
0.0
 40
0.0
 40
0.0
 40
0.2
 40
0.2
 40
0.2
 40
0.2
 40
0.4
 40
0.4
 40
0.4
 40
0.4
 40
0.6
 40
0.6
 40
0.6
 40
0.6
 40
1.0
 40
1.0
 40
1.0
 40
1.0
 10
62.8011
 20
65.5893
 30
0.0
 10
58.3828
 20
65.5893
 30
0.0
 10
54.8011
 20
69.171
 30
0.0
 10
54.8011
 20
73.5893
 30
0.0
 10
54.8011
 20
73.5893
 30
0.0
 10
54.8011
 20
78.0076
 30
0.0
 10
58.3828
 20
81.5893
 30
0.0
 10
62.8011
 20
81.5893
 30
0.0
 10
62.8011
 20
81.5893
 30
0.0
 10
67.2194
 20
81.5893
 30
0.0
 10
70.8011
 20
78.0076
 30
0.0
 10
70.8011
 20
73.5893
 30
0.0
 10
70.8011
 20
73.5893
 30
0.0
 10
70.8011
 20
69.171
 30
0.0
 10
67.2194
 20
65.5893
 30
0.0
 10
62.8011
 20
65.5893
 30
0.0
  0
SPLINE
  5
7D
330
1F
100
AcDbEntity
  8
Layer 1
 62
   250
370
    20
100
AcDbSpline
210
0.0
220
0.0
230
1.0
 70
    11
 71
     3
 72
    20
 73
    16
 74
     0
 42
0.0000000001
 43
0.0000000001
 12
1.0
 22
0.0
 32
0.0
 13
1.0
 23
0.0
 33
0.0
 40
0.0
 40
0.0
 40
0.0
 40
0.0
 40
0.2
 40
0.2
 40
0.2
 40
0.2
 40
0.4
 40
0.4
 40
0.4
 40
0.4
 40
0.6
 40
0.6
 40
0.6
 40
0.6
 40
1.0
 40
1.0
 40
1.0
 40
1.0
 10
27.5967
 20
68.1481
 30
0.0
 10
27.5967
 20
68.1481
 30
0.0
 10
-72.4033
 20
68.1481
 30
0.0
 10
-72.4033
 20
68.1481
 30
0.0
 10
-72.4033
 20
68.1481
 30
0.0
 10
-72.4033
 20
68.1481
 30
0.0
 10
-72.4033
 20
118.1481
 30
0.0
 10
-72.4033
 20
118.1481
 30
0.0
 10
-72.4033
 20
118.1481
 30
0.0
 10
-72.4033
 20
118.1481
 30
0.0
 10
27.5967
 20
118.1481
 30
0.0
 10
27.5967
 20
118.1481
 30
0.0
 10
27.5967
 20
118.1481
 30
0.0
 10
27.5967
 20
118.1481
 30
0.0
 10
27.5967
 20
68.1481
 30
0.0
 10
27.5967
 20
68.1481
 30
0.0
  0
SPLINE
  5
7E
330
1F
100
AcDbEntity
  8
Layer 1
 62
   250
370
    20
100
AcDbSpline
210
0.0
220
0.0
230
1.0
 70
    11
 71
     3
 72
    20
 73
    16
 74
     0
 42
0.0000000001
 43
0.0000000001
 12
1.0
 22
0.0
 32
0.0
 13
1.0
 23
0.0
 33
0.0
 40
0.0
 40
0.0
 40
0.0
 40
0.0
 40
0.2
 40
0.2
 40
0.2
 40
0.2
 40
0.4
 40
0.4
 40
0.4
 40
0.4
 40
0.6
 40
0.6
 40
0.6
 40
0.6
 40
1.0
 40
1.0
 40
1.0
 40
1.0
 10
7.7499
 20
123.7044
 30
0.0
 10
6.8662
 20
123.7044
 30
0.0
 10
6.1499
 20
124.4207
 30
0.0
 10
6.1499
 20
125.3044
 30
0.0
 10
6.1499
 20
125.3044
 30
0.0
 10
6.1499
 20
126.1881
 30
0.0
 10
6.8662
 20
126.9044
 30
0.0
 10
7.7499
 20
126.9044
 30
0.0
 10
7.7499
 20
126.9044
 30
0.0
 10
8.6336
 20
126.9044
 30
0.0
 10
9.3499
 20
126.1881
 30
0.0
 10
9.3499
 20
125.3044
 30
0.0
 10
9.3499
 20
125.3044
 30
0.0
 10
9.3499
 20
124.4207
 30
0.0
 10
8.6336
 20
123.7044
 30
0.0
 10
7.7499
 20
123.7044
 30
0.0
  0
SPLINE
  5
7F
330
1F
100
AcDbEntity
  8
Layer 1
 62
   250
370
    20
100
AcDbSpline
210
0.0
220
0.0
230
1.0
 70
    11
 71
     3
 72
    20
 73
    16
 74
     0
 42
0.0000000001
 43
0.0000000001
 12
1.0
 22
0.0
 32
0.0
 13
1.0
 23
0.0
 33
0.0
 40
0.0
 40
0.0
 40
0.0
 40
0.0
 40
0.2
 40
0.2
 40
0.2
 40
0.2
 40
0.4
 40
0.4
 40
0.4
 40
0.4
 40
0.6
 40
0.6
 40
0.6
 40
0.6
 40
1.0
 40
1.0
 40
1.0
 40
1.0
 10
-59.4332
 20
123.7044
 30
0.0
 10
-60.3169
 20
123.7044
 30
0.0
 10
-61.0332
 20
124.4207
 30
0.0
 10
-61.0332
 20
125.3044
 30
0.0
 10
-61.0332
 20
125.3044
 30
0.0
 10
-61.0332
 20
126.1881
 30
0.0
 10
-60.3169
 20
126.9044
 30
0.0
 10
-59.4332
 20
126.9044
 30
0.0
 10
-59.4332
 20
126.9044
 30
0.0
 10
-58.5495
 20
126.9044
 30
0.0
 10
-57.8332
 20
126.1881
 30
0.0
 10
-57.8332
 20
125.3044
 30
0.0
 10
-57.8332
 20
125.3044
 30
0.0
 10
-57.8332
 20
124.4207
 30
0.0
 10
-58.5495
 20
123.7044
 30
0.0
 10
-59.4332
 20
123.7044
 30
0.0
  0
SPLINE
  5
80
330
1F
100
AcDbEntity
  8
Layer 1
 62
   250
370
    20
100
AcDbSpline
210
0.0
220
0.0
230
1.0
 70
    11
 71
     3
 72
    20
 73
    16
 74
     0
 42
0.0000000001
 43
0.0000000001
 12
1.0
 22
0.0
 32
0.0
 13
1.0
 23
0.0
 33
0.0
 40
0.0
 40
0.0
 40
0.0
 40
0.0
 40
0.2
 40
0.2
 40
0.2
 40
0.2
 40
0.4
 40
0.4
 40
0.4
 40
0.4
 40
0.6
 40
0.6
 40
0.6
 40
0.6
 40
1.0
 40
1.0
 40
1.0
 40
1.0
 10
61.5172
 20
111.0211
 30
0.0
 10
46.0532
 20
111.0211
 30
0.0
 10
33.5172
 20
123.5571
 30
0.0
 10
33.5172
 20
139.0211
 30
0.0
 10
33.5172
 20
139.0211
 30
0.0
 10
33.5172
 20
154.4851
 30
0.0
 10
46.0532
 20
167.0211
 30
0.0
 10
61.5172
 20
167.0211
 30
0.0
 10
61.5172
 20
167.0211
 30
0.0
 10
76.9812
 20
167.0211
 30
0.0
 10
89.5172
 20
154.4851
 30
0.0
 10
89.5172
 20
139.0211
 30
0.0
 10
89.5172
 20
139.0211
 30
0.0
 10
89.5172
 20
123.5571
 30
0.0
 10
76.9812
 20
111.0211
 30
0.0
 10
61.5172
 20
111.0211
 30
0.0
  0
SPLINE
  5
81
330
1F
100
AcDbEntity
  8
Layer 1
 62
   250
370
    20
100
AcDbSpline
210
0.0
220
0.0
230
1.0
 70
    11
 71
     3
 72
    20
 73
    16
 74
     0
 42
0.0000000001
 43
0.0000000001
 12
1.0
 22
0.0
 32
0.0
 13
1.0
 23
0.0
 33
0.0
 40
0.0
 40
0.0
 40
0.0
 40
0.0
 40
0.2
 40
0.2
 40
0.2
 40
0.2
 40
0.4
 40
0.4
 40
0.4
 40
0.4
 40
0.6
 40
0.6
 40
0.6
 40
0.6
 40
1.0
 40
1.0
 40
1.0
 40
1.0
 10
-43.1767
 20
123.3352
 30
0.0
 10
-43.1767
 20
123.3352
 30
0.0
 10
-22.6279
 20
123.3352
 30
0.0
 10
-22.6279
 20
123.3352
 30
0.0
 10
-22.6279
 20
123.3352
 30
0.0
 10
-22.6279
 20
123.3352
 30
0.0
 10
-22.6279
 20
155.2382
 30
0.0
 10
-22.6279
 20
155.2382
 30
0.0
 10
-22.6279
 20
155.2382
 30
0.0
 10
-22.6279
 20
155.2382
 30
0.0
 10
-43.1767
 20
155.2382
 30
0.0
 10
-43.1767
 20
155.2382
 30
0.0
 10
-43.1767
 20
155.2382
 30
0.0
 10
-43.1767
 20
155.2382
 30
0.0
 10
-43.1767
 20
123.3352
 30
0.0
 10
-43.1767
 20
123.3352
 30
0.0
  0
SPLINE
  5
82
330
1F
100
AcDbEntity
  8
Layer 1
 62
   250
370
    20
100
AcDbSpline
210
0.0
220
0.0
230
1.0
 70
    11
 71
     3
 72
    20
 73
    16
 74
     0
 42
0.0000000001
 43
0.0000000001
 12
1.0
 22
0.0
 32
0.0
 13
1.0
 23
0.0
 33
0.0
 40
0.0
 40
0.0
 40
0.0
 40
0.0
 40
0.2
 40
0.2
 40
0.2
 40
0.2
 40
0.4
 40
0.4
 40
0.4
 40
0.4
 40
0.6
 40
0.6
 40
0.6
 40
0.6
 40
1.0
 40
1.0
 40
1.0
 40
1.0
 10
-45.5474
 20
157.267
 30
0.0
 10
-45.5474
 20
157.267
 30
0.0
 10
-60.3641
 20
157.267
 30
0.0
 10
-60.3641
 20
157.267
 30
0.0
 10
-60.3641
 20
157.267
 30
0.0
 10
-60.3641
 20
157.267
 30
0.0
 10
-60.3641
 20
161.077
 30
0.0
 10
-60.3641
 20
161.077
 30
0.0
 10
-60.3641
 20
161.077
 30
0.0
 10
-60.3641
 20
161.077
 30
0.0
 10
-45.5474
 20
161.077
 30
0.0
 10
-45.5474
 20
161.077
 30
0.0
 10
-45.5474
 20
161.077
 30
0.0
 10
-45.5474
 20
161.077
 30
0.0
 10
-45.5474
 20
157.267
 30
0.0
 10
-45.5474
 20
157.267
 30
0.0
  0
SPLINE
  5
83
330
1F
100
AcDbEntity
  8
Layer 1
 62
   250
370
    20
100
AcDbSpline
210
0.0
220
0.0
230
1.0
 70
    11
 71
     3
 72
    20
 73
    16
 74
     0
 42
0.0000000001
 43
0.0000000001
 12
1.0
 22
0.0
 32
0.0
 13
1.0
 23
0.0
 33
0.0
 40
0.0
 40
0.0
 40
0.0
 40
0.0
 40
0.2
 40
0.2
 40
0.2
 40
0.2
 40
0.4
 40
0.4
 40
0.4
 40
0.4
 40
0.6
 40
0.6
 40
0.6
 40
0.6
 40
1.0
 40
1.0
 40
1.0
 40
1.0
 10
77.166
 20
106.4059
 30
0.0
 10
77.166
 20
106.4059
 30
0.0
 10
77.166
 20
88.4059
 30
0.0
 10
77.166
 20
88.4059
 30
0.0
 10
77.166
 20
88.4059
 30
0.0
 10
77.166
 20
88.4059
 30
0.0
 10
47.1659
 20
88.4059
 30
0.0
 10
47.1659
 20
88.4059
 30
0.0
 10
47.1659
 20
88.4059
 30
0.0
 10
47.1659
 20
88.4059
 30
0.0
 10
47.1659
 20
106.4059
 30
0.0
 10
47.1659
 20
106.4059
 30
0.0
 10
47.1659
 20
106.4059
 30
0.0
 10
47.1659
 20
106.4059
 30
0.0
 10
77.166
 20
106.4059
 30
0.0
 10
77.166
 20
106.4059
 30
0.0
  0
SPLINE
  5
84
330
1F
100
AcDbEntity
  8
Layer 1
 62
   250
370
    20
100
AcDbSpline
210
0.0
220
0.0
230
1.0
 70
    11
 71
     3
 72
    20
 73
    16
 74
     0
 42
0.0000000001
 43
0.0000000001
 12
1.0
 22
0.0
 32
0.0
 13
1.0
 23
0.0
 33
0.0
 40
0.0
 40
0.0
 40
0.0
 40
0.0
 40
0.2
 40
0.2
 40
0.2
 40
0.2
 40
0.4
 40
0.4
 40
0.4
 40
0.4
 40
0.6
 40
0.6
 40
0.6
 40
0.6
 40
1.0
 40
1.0
 40
1.0
 40
1.0
 10
-45.8812
 20
132.6
 30
0.0
 10
-45.8812
 20
132.6
 30
0.0
 10
-47.4687
 20
132.6
 30
0.0
 10
-47.4687
 20
132.6
 30
0.0
 10
-47.4687
 20
132.6
 30
0.0
 10
-47.4687
 20
132.6
 30
0.0
 10
-47.4687
 20
148.1576
 30
0.0
 10
-47.4687
 20
148.1576
 30
0.0
 10
-47.4687
 20
148.1576
 30
0.0
 10
-47.4687
 20
148.1576
 30
0.0
 10
-45.8812
 20
148.1576
 30
0.0
 10
-45.8812
 20
148.1576
 30
0.0
 10
-45.8812
 20
148.1576
 30
0.0
 10
-45.8812
 20
148.1576
 30
0.0
 10
-45.8812
 20
132.6
 30
0.0
 10
-45.8812
 20
132.6
 30
0.0
  0
SPLINE
  5
85
330
1F
100
AcDbEntity
  8
Layer 1
 62
   250
370
    20
100
AcDbSpline
210
0.0
220
0.0
230
1.0
 70
    11
 71
     3
 72
    20
 73
    16
 74
     0
 42
0.0000000001
 43
0.0000000001
 12
1.0
 22
0.0
 32
0.0
 13
1.0
 23
0.0
 33
0.0
 40
0.0
 40
0.0
 40
0.0
 40
0.0
 40
0.2
 40
0.2
 40
0.2
 40
0.2
 40
0.4
 40
0.4
 40
0.4
 40
0.4
 40
0.6
 40
0.6
 40
0.6
 40
0.6
 40
1.0
 40
1.0
 40
1.0
 40
1.0
 10
-48.8813
 20
132.6
 30
0.0
 10
-48.8813
 20
132.6
 30
0.0
 10
-50.4688
 20
132.6
 30
0.0
 10
-50.4688
 20
132.6
 30
0.0
 10
-50.4688
 20
132.6
 30
0.0
 10
-50.4688
 20
132.6
 30
0.0
 10
-50.4688
 20
148.1576
 30
0.0
 10
-50.4688
 20
148.1576
 30
0.0
 10
-50.4688
 20
148.1576
 30
0.0
 10
-50.4688
 20
148.1576
 30
0.0
 10
-48.8813
 20
148.1576
 30
0.0
 10
-48.8813
 20
148.1576
 30
0.0
 10
-48.8813
 20
148.1576
 30
0.0
 10
-48.8813
 20
148.1576
 30
0.0
 10
-48.8813
 20
132.6
 30
0.0
 10
-48.8813
 20
132.6
 30
0.0
  0
SPLINE
  5
86
330
1F
100
AcDbEntity
  8
Layer 1
 62
   250
370
    20
100
AcDbSpline
210
0.0
220
0.0
230
1.0
 70
    11
 71
     3
 72
    20
 73
    16
 74
     0
 42
0.0000000001
 43
0.0000000001
 12
1.0
 22
0.0
 32
0.0
 13
1.0
 23
0.0
 33
0.0
 40
0.0
 40
0.0
 40
0.0
 40
0.0
 40
0.2
 40
0.2
 40
0.2
 40
0.2
 40
0.4
 40
0.4
 40
0.4
 40
0.4
 40
0.6
 40
0.6
 40
0.6
 40
0.6
 40
1.0
 40
1.0
 40
1.0
 40
1.0
 10
-51.8813
 20
132.6
 30
0.0
 10
-51.8813
 20
132.6
 30
0.0
 10
-53.4688
 20
132.6
 30
0.0
 10
-53.4688
 20
132.6
 30
0.0
 10
-53.4688
 20
132.6
 30
0.0
 10
-53.4688
 20
132.6
 30
0.0
 10
-53.4688
 20
148.1576
 30
0.0
 10
-53.4688
 20
148.1576
 30
0.0
 10
-53.4688
 20
148.1576
 30
0.0
 10
-53.4688
 20
148.1576
 30
0.0
 10
-51.8813
 20
148.1576
 30
0.0
 10
-51.8813
 20
148.1576
 30
0.0
 10
-51.8813
 20
148.1576
 30
0.0
 10
-51.8813
 20
148.1576
 30
0.0
 10
-51.8813
 20
132.6
 30
0.0
 10
-51.8813
 20
132.6
 30
0.0
  0
SPLINE
  5
87
330
1F
100
AcDbEntity
  8
Layer 1
 62
   250
370
    20
100
AcDbSpline
210
0.0
220
0.0
230
1.0
 70
    11
 71
     3
 72
    20
 73
    16
 74
     0
 42
0.0000000001
 43
0.0000000001
 12
1.0
 22
0.0
 32
0.0
 13
1.0
 23
0.0
 33
0.0
 40
0.0
 40
0.0
 40
0.0
 40
0.0
 40
0.2
 40
0.2
 40
0.2
 40
0.2
 40
0.4
 40
0.4
 40
0.4
 40
0.4
 40
0.6
 40
0.6
 40
0.6
 40
0.6
 40
1.0
 40
1.0
 40
1.0
 40
1.0
 10
-54.8813
 20
132.6
 30
0.0
 10
-54.8813
 20
132.6
 30
0.0
 10
-56.4688
 20
132.6
 30
0.0
 10
-56.4688
 20
132.6
 30
0.0
 10
-56.4688
 20
132.6
 30
0.0
 10
-56.4688
 20
132.6
 30
0.0
 10
-56.4688
 20
148.1576
 30
0.0
 10
-56.4688
 20
148.1576
 30
0.0
 10
-56.4688
 20
148.1576
 30
0.0
 10
-56.4688
 20
148.1576
 30
0.0
 10
-54.8813
 20
148.1576
 30
0.0
 10
-54.8813
 20
148.1576
 30
0.0
 10
-54.8813
 20
148.1576
 30
0.0
 10
-54.8813
 20
148.1576
 30
0.0
 10
-54.8813
 20
132.6
 30
0.0
 10
-54.8813
 20
132.6
 30
0.0
  0
SPLINE
  5
88
330
1F
100
AcDbEntity
  8
Layer 1
 62
   250
370
    20
100
AcDbSpline
210
0.0
220
0.0
230
1.0
 70
    11
 71
     3
 72
    20
 73
    16
 74
     0
 42
0.0000000001
 43
0.0000000001
 12
1.0
 22
0.0
 32
0.0
 13
1.0
 23
0.0
 33
0.0
 40
0.0
 40
0.0
 40
0.0
 40
0.0
 40
0.2
 40
0.2
 40
0.2
 40
0.2
 40
0.4
 40
0.4
 40
0.4
 40
0.4
 40
0.6
 40
0.6
 40
0.6
 40
0.6
 40
1.0
 40
1.0
 40
1.0
 40
1.0
 10
-57.8813
 20
132.6
 30
0.0
 10
-57.8813
 20
132.6
 30
0.0
 10
-59.4688
 20
132.6
 30
0.0
 10
-59.4688
 20
132.6
 30
0.0
 10
-59.4688
 20
132.6
 30
0.0
 10
-59.4688
 20
132.6
 30
0.0
 10
-59.4688
 20
148.1576
 30
0.0
 10
-59.4688
 20
148.1576
 30
0.0
 10
-59.4688
 20
148.1576
 30
0.0
 10
-59.4688
 20
148.1576
 30
0.0
 10
-57.8813
 20
148.1576
 30
0.0
 10
-57.8813
 20
148.1576
 30
0.0
 10
-57.8813
 20
148.1576
 30
0.0
 10
-57.8813
 20
148.1576
 30
0.0
 10
-57.8813
 20
132.6
 30
0.0
 10
-57.8813
 20
132.6
 30
0.0
  0
SPLINE
  5
89
330
1F
100
AcDbEntity
  8
Layer 1
 62
   250
370
    20
100
AcDbSpline
210
0.0
220
0.0
230
1.0
 70
    11
 71
     3
 72
    20
 73
    16
 74
     0
 42
0.0000000001
 43
0.0000000001
 12
1.0
 22
0.0
 32
0.0
 13
1.0
 23
0.0
 33
0.0
 40
0.0
 40
0.0
 40
0.0
 40
0.0
 40
0.2
 40
0.2
 40
0.2
 40
0.2
 40
0.4
 40
0.4
 40
0.4
 40
0.4
 40
0.6
 40
0.6
 40
0.6
 40
0.6
 40
1.0
 40
1.0
 40
1.0
 40
1.0
 10
3.4333
 20
161.678
 30
0.0
 10
1.6384
 20
161.678
 30
0.0
 10
0.1833
 20
163.1331
 30
0.0
 10
0.1833
 20
164.928
 30
0.0
 10
0.1833
 20
164.928
 30
0.0
 10
0.1833
 20
166.7229
 30
0.0
 10
1.6384
 20
168.178
 30
0.0
 10
3.4333
 20
168.178
 30
0.0
 10
3.4333
 20
168.178
 30
0.0
 10
5.2282
 20
168.178
 30
0.0
 10
6.6833
 20
166.7229
 30
0.0
 10
6.6833
 20
164.928
 30
0.0
 10
6.6833
 20
164.928
 30
0.0
 10
6.6833
 20
163.1331
 30
0.0
 10
5.2282
 20
161.678
 30
0.0
 10
3.4333
 20
161.678
 30
0.0
  0
SPLINE
  5
8A
330
1F
100
AcDbEntity
  8
Layer 1
 62
   250
370
    20
100
AcDbSpline
210
0.0
220
0.0
230
1.0
 70
    11
 71
     3
 72
    20
 73
    16
 74
     0
 42
0.0000000001
 43
0.0000000001
 12
1.0
 22
0.0
 32
0.0
 13
1.0
 23
0.0
 33
0.0
 40
0.0
 40
0.0
 40
0.0
 40
0.0
 40
0.2
 40
0.2
 40
0.2
 40
0.2
 40
0.4
 40
0.4
 40
0.4
 40
0.4
 40
0.6
 40
0.6
 40
0.6
 40
0.6
 40
1.0
 40
1.0
 40
1.0
 40
1.0
 10
-10.9177
 20
161.678
 30
0.0
 10
-12.7126
 20
161.678
 30
0.0
 10
-14.1677
 20
163.1331
 30
0.0
 10
-14.1677
 20
164.928
 30
0.0
 10
-14.1677
 20
164.928
 30
0.0
 10
-14.1677
 20
166.7229
 30
0.0
 10
-12.7126
 20
168.178
 30
0.0
 10
-10.9177
 20
168.178
 30
0.0
 10
-10.9177
 20
168.178
 30
0.0
 10
-9.1228
 20
168.178
 30
0.0
 10
-7.6677
 20
166.7229
 30
0.0
 10
-7.6677
 20
164.928
 30
0.0
 10
-7.6677
 20
164.928
 30
0.0
 10
-7.6677
 20
163.1331
 30
0.0
 10
-9.1228
 20
161.678
 30
0.0
 10
-10.9177
 20
161.678
 30
0.0
  0
SPLINE
  5
8B
330
1F
100
AcDbEntity
  8
Layer 1
 62
   250
370
    20
100
AcDbSpline
210
0.0
220
0.0
230
1.0
 70
    11
 71
     3
 72
    20
 73
    16
 74
     0
 42
0.0000000001
 43
0.0000000001
 12
1.0
 22
0.0
 32
0.0
 13
1.0
 23
0.0
 33
0.0
 40
0.0
 40
0.0
 40
0.0
 40
0.0
 40
0.2
 40
0.2
 40
0.2
 40
0.2
 40
0.4
 40
0.4
 40
0.4
 40
0.4
 40
0.6
 40
0.6
 40
0.6
 40
0.6
 40
1.0
 40
1.0
 40
1.0
 40
1.0
 10
-25.2537
 20
161.678
 30
0.0
 10
-27.0486
 20
161.678
 30
0.0
 10
-28.5037
 20
163.1331
 30
0.0
 10
-28.5037
 20
164.928
 30
0.0
 10
-28.5037
 20
164.928
 30
0.0
 10
-28.5037
 20
166.7229
 30
0.0
 10
-27.0486
 20
168.178
 30
0.0
 10
-25.2537
 20
168.178
 30
0.0
 10
-25.2537
 20
168.178
 30
0.0
 10
-23.4588
 20
168.178
 30
0.0
 10
-22.0037
 20
166.7229
 30
0.0
 10
-22.0037
 20
164.928
 30
0.0
 10
-22.0037
 20
164.928
 30
0.0
 10
-22.0037
 20
163.1331
 30
0.0
 10
-23.4588
 20
161.678
 30
0.0
 10
-25.2537
 20
161.678
 30
0.0
  0
SPLINE
  5
8C
330
1F
100
AcDbEntity
  8
Layer 1
 62
   250
370
    20
100
AcDbSpline
210
0.0
220
0.0
230
1.0
 70
    11
 71
     3
 72
    20
 73
    16
 74
     0
 42
0.0000000001
 43
0.0000000001
 12
1.0
 22
0.0
 32
0.0
 13
1.0
 23
0.0
 33
0.0
 40
0.0
 40
0.0
 40
0.0
 40
0.0
 40
0.2
 40
0.2
 40
0.2
 40
0.2
 40
0.4
 40
0.4
 40
0.4
 40
0.4
 40
0.6
 40
0.6
 40
0.6
 40
0.6
 40
1.0
 40
1.0
 40
1.0
 40
1.0
 10
-39.6047
 20
161.678
 30
0.0
 10
-41.3996
 20
161.678
 30
0.0
 10
-42.8547
 20
163.1331
 30
0.0
 10
-42.8547
 20
164.928
 30
0.0
 10
-42.8547
 20
164.928
 30
0.0
 10
-42.8547
 20
166.7229
 30
0.0
 10
-41.3996
 20
168.178
 30
0.0
 10
-39.6047
 20
168.178
 30
0.0
 10
-39.6047
 20
168.178
 30
0.0
 10
-37.8098
 20
168.178
 30
0.0
 10
-36.3547
 20
166.7229
 30
0.0
 10
-36.3547
 20
164.928
 30
0.0
 10
-36.3547
 20
164.928
 30
0.0
 10
-36.3547
 20
163.1331
 30
0.0
 10
-37.8098
 20
161.678
 30
0.0
 10
-39.6047
 20
161.678
 30
0.0
  0
SPLINE
  5
8D
330
1F
100
AcDbEntity
  8
Layer 1
 62
   250
370
    20
100
AcDbSpline
210
0.0
220
0.0
230
1.0
 70
    11
 71
     3
 72
    20
 73
    16
 74
     0
 42
0.0000000001
 43
0.0000000001
 12
1.0
 22
0.0
 32
0.0
 13
1.0
 23
0.0
 33
0.0
 40
0.0
 40
0.0
 40
0.0
 40
0.0
 40
0.2
 40
0.2
 40
0.2
 40
0.2
 40
0.4
 40
0.4
 40
0.4
 40
0.4
 40
0.6
 40
0.6
 40
0.6
 40
0.6
 40
1.0
 40
1.0
 40
1.0
 40
1.0
 10
32.6144
 20
67.9446
 30
0.0
 10
31.5098
 20
67.9446
 30
0.0
 10
30.6144
 20
68.84
 30
0.0
 10
30.6144
 20
69.9446
 30
0.0
 10
30.6144
 20
69.9446
 30
0.0
 10
30.6144
 20
71.0492
 30
0.0
 10
31.5098
 20
71.9446
 30
0.0
 10
32.6144
 20
71.9446
 30
0.0
 10
32.6144
 20
71.9446
 30
0.0
 10
33.719
 20
71.9446
 30
0.0
 10
34.6144
 20
71.0492
 30
0.0
 10
34.6144
 20
69.9446
 30
0.0
 10
34.6144
 20
69.9446
 30
0.0
 10
34.6144
 20
68.84
 30
0.0
 10
33.719
 20
67.9446
 30
0.0
 10
32.6144
 20
67.9446
 30
0.0
  0
SPLINE
  5
8E
330
1F
100
AcDbEntity
  8
Layer 1
 62
   250
370
    20
100
AcDbSpline
210
0.0
220
0.0
230
1.0
 70
    11
 71
     3
 72
    20
 73
    16
 74
     0
 42
0.0000000001
 43
0.0000000001
 12
1.0
 22
0.0
 32
0.0
 13
1.0
 23
0.0
 33
0.0
 40
0.0
 40
0.0
 40
0.0
 40
0.0
 40
0.2
 40
0.2
 40
0.2
 40
0.2
 40
0.4
 40
0.4
 40
0.4
 40
0.4
 40
0.6
 40
0.6
 40
0.6
 40
0.6
 40
1.0
 40
1.0
 40
1.0
 40
1.0
 10
-77.3855
 20
67.6946
 30
0.0
 10
-78.6282
 20
67.6946
 30
0.0
 10
-79.6355
 20
68.7019
 30
0.0
 10
-79.6355
 20
69.9446
 30
0.0
 10
-79.6355
 20
69.9446
 30
0.0
 10
-79.6355
 20
71.1873
 30
0.0
 10
-78.6282
 20
72.1946
 30
0.0
 10
-77.3855
 20
72.1946
 30
0.0
 10
-77.3855
 20
72.1946
 30
0.0
 10
-76.1428
 20
72.1946
 30
0.0
 10
-75.1355
 20
71.1873
 30
0.0
 10
-75.1355
 20
69.9446
 30
0.0
 10
-75.1355
 20
69.9446
 30
0.0
 10
-75.1355
 20
68.7019
 30
0.0
 10
-76.1428
 20
67.6946
 30
0.0
 10
-77.3855
 20
67.6946
 30
0.0
  0
SPLINE
  5
8F
330
1F
100
AcDbEntity
  8
Layer 1
 62
   250
370
    20
100
AcDbSpline
210
0.0
220
0.0
230
1.0
 70
    11
 71
     3
 72
    20
 73
    16
 74
     0
 42
0.0000000001
 43
0.0000000001
 12
1.0
 22
0.0
 32
0.0
 13
1.0
 23
0.0
 33
0.0
 40
0.0
 40
0.0
 40
0.0
 40
0.0
 40
0.2
 40
0.2
 40
0.2
 40
0.2
 40
0.4
 40
0.4
 40
0.4
 40
0.4
 40
0.6
 40
0.6
 40
0.6
 40
0.6
 40
1.0
 40
1.0
 40
1.0
 40
1.0
 10
32.6144
 20
114.1949
 30
0.0
 10
31.3717
 20
114.1949
 30
0.0
 10
30.3644
 20
115.2022
 30
0.0
 10
30.3644
 20
116.4449
 30
0.0
 10
30.3644
 20
116.4449
 30
0.0
 10
30.3644
 20
117.6876
 30
0.0
 10
31.3717
 20
118.6949
 30
0.0
 10
32.6144
 20
118.6949
 30
0.0
 10
32.6144
 20
118.6949
 30
0.0
 10
33.8571
 20
118.6949
 30
0.0
 10
34.8644
 20
117.6876
 30
0.0
 10
34.8644
 20
116.4449
 30
0.0
 10
34.8644
 20
116.4449
 30
0.0
 10
34.8644
 20
115.2022
 30
0.0
 10
33.8571
 20
114.1949
 30
0.0
 10
32.6144
 20
114.1949
 30
0.0
  0
SPLINE
  5
90
330
1F
100
AcDbEntity
  8
Layer 1
 62
   250
370
    20
100
AcDbSpline
210
0.0
220
0.0
230
1.0
 70
    11
 71
     3
 72
    20
 73
    16
 74
     0
 42
0.0000000001
 43
0.0000000001
 12
1.0
 22
0.0
 32
0.0
 13
1.0
 23
0.0
 33
0.0
 40
0.0
 40
0.0
 40
0.0
 40
0.0
 40
0.2
 40
0.2
 40
0.2
 40
0.2
 40
0.4
 40
0.4
 40
0.4
 40
0.4
 40
0.6
 40
0.6
 40
0.6
 40
0.6
 40
1.0
 40
1.0
 40
1.0
 40
1.0
 10
-77.3855
 20
114.1949
 30
0.0
 10
-78.6282
 20
114.1949
 30
0.0
 10
-79.6355
 20
115.2022
 30
0.0
 10
-79.6355
 20
116.4449
 30
0.0
 10
-79.6355
 20
116.4449
 30
0.0
 10
-79.6355
 20
117.6876
 30
0.0
 10
-78.6282
 20
118.6949
 30
0.0
 10
-77.3855
 20
118.6949
 30
0.0
 10
-77.3855
 20
118.6949
 30
0.0
 10
-76.1428
 20
118.6949
 30
0.0
 10
-75.1355
 20
117.6876
 30
0.0
 10
-75.1355
 20
116.4449
 30
0.0
 10
-75.1355
 20
116.4449
 30
0.0
 10
-75.1355
 20
115.2022
 30
0.0
 10
-76.1428
 20
114.1949
 30
0.0
 10
-77.3855
 20
114.1949
 30
0.0
  0
SPLINE
  5
91
330
1F
100
AcDbEntity
  8
Layer 1
 62
   250
370
    20
100
AcDbSpline
210
0.0
220
0.0
230
1.0
 70
    11
 71
     3
 72
    20
 73
    16
 74
     0
 42
0.0000000001
 43
0.0000000001
 12
1.0
 22
0.0
 32
0.0
 13
1.0
 23
0.0
 33
0.0
 40
0.0
 40
0.0
 40
0.0
 40
0.0
 40
0.2
 40
0.2
 40
0.2
 40
0.2
 40
0.4
 40
0.4
 40
0.4
 40
0.4
 40
0.6
 40
0.6
 40
0.6
 40
0.6
 40
1.0
 40
1.0
 40
1.0
 40
1.0
 10
94.2413
 20
137.1572
 30
0.0
 10
93.3576
 20
137.1572
 30
0.0
 10
92.6413
 20
137.8735
 30
0.0
 10
92.6413
 20
138.7572
 30
0.0
 10
92.6413
 20
138.7572
 30
0.0
 10
92.6413
 20
139.6409
 30
0.0
 10
93.3576
 20
140.3572
 30
0.0
 10
94.2413
 20
140.3572
 30
0.0
 10
94.2413
 20
140.3572
 30
0.0
 10
95.125
 20
140.3572
 30
0.0
 10
95.8413
 20
139.6409
 30
0.0
 10
95.8413
 20
138.7572
 30
0.0
 10
95.8413
 20
138.7572
 30
0.0
 10
95.8413
 20
137.8735
 30
0.0
 10
95.125
 20
137.1572
 30
0.0
 10
94.2413
 20
137.1572
 30
0.0
  0
SPLINE
  5
92
330
1F
100
AcDbEntity
  8
Layer 1
 62
   250
370
    20
100
AcDbSpline
210
0.0
220
0.0
230
1.0
 70
    11
 71
     3
 72
    20
 73
    16
 74
     0
 42
0.0000000001
 43
0.0000000001
 12
1.0
 22
0.0
 32
0.0
 13
1.0
 23
0.0
 33
0.0
 40
0.0
 40
0.0
 40
0.0
 40
0.0
 40
0.2
 40
0.2
 40
0.2
 40
0.2
 40
0.4
 40
0.4
 40
0.4
 40
0.4
 40
0.6
 40
0.6
 40
0.6
 40
0.6
 40
1.0
 40
1.0
 40
1.0
 40
1.0
 10
28.7933
 20
137.4212
 30
0.0
 10
27.9096
 20
137.4212
 30
0.0
 10
27.1933
 20
138.1375
 30
0.0
 10
27.1933
 20
139.0212
 30
0.0
 10
27.1933
 20
139.0212
 30
0.0
 10
27.1933
 20
139.9049
 30
0.0
 10
27.9096
 20
140.6212
 30
0.0
 10
28.7933
 20
140.6212
 30
0.0
 10
28.7933
 20
140.6212
 30
0.0
 10
29.677
 20
140.6212
 30
0.0
 10
30.3933
 20
139.9049
 30
0.0
 10
30.3933
 20
139.0212
 30
0.0
 10
30.3933
 20
139.0212
 30
0.0
 10
30.3933
 20
138.1375
 30
0.0
 10
29.677
 20
137.4212
 30
0.0
 10
28.7933
 20
137.4212
 30
0.0
  0
SPLINE
  5
93
330
1F
100
AcDbEntity
  8
Layer 1
 62
   250
370
    20
100
AcDbSpline
210
0.0
220
0.0
230
1.0
 70
    11
 71
     3
 72
    20
 73
    16
 74
     0
 42
0.0000000001
 43
0.0000000001
 12
1.0
 22
0.0
 32
0.0
 13
1.0
 23
0.0
 33
0.0
 40
0.0
 40
0.0
 40
0.0
 40
0.0
 40
0.2
 40
0.2
 40
0.2
 40
0.2
 40
0.4
 40
0.4
 40
0.4
 40
0.4
 40
0.6
 40
0.6
 40
0.6
 40
0.6
 40
1.0
 40
1.0
 40
1.0
 40
1.0
 10
-98.6945
 20
-65.1784
 30
0.0
 10
-98.6945
 20
-65.1784
 30
0.0
 10
-172.1429
 20
-65.1784
 30
0.0
 10
-172.1429
 20
-65.1784
 30
0.0
 10
-172.1429
 20
-65.1784
 30
0.0
 10
-172.1429
 20
-65.1784
 30
0.0
 10
-172.1429
 20
-31.9467
 30
0.0
 10
-172.1429
 20
-31.9467
 30
0.0
 10
-172.1429
 20
-31.9467
 30
0.0
 10
-172.1429
 20
-31.9467
 30
0.0
 10
-98.6945
 20
-31.9467
 30
0.0
 10
-98.6945
 20
-31.9467
 30
0.0
 10
-98.6945
 20
-31.9467
 30
0.0
 10
-98.6945
 20
-31.9467
 30
0.0
 10
-98.6945
 20
-65.1784
 30
0.0
 10
-98.6945
 20
-65.1784
 30
0.0
  0
SPLINE
  5
94
330
1F
100
AcDbEntity
  8
Layer 1
 62
   250
370
    20
100
AcDbSpline
210
0.0
220
0.0
230
1.0
 70
    11
 71
     3
 72
    20
 73
    16
 74
     0
 42
0.0000000001
 43
0.0000000001
 12
1.0
 22
0.0
 32
0.0
 13
1.0
 23
0.0
 33
0.0
 40
0.0
 40
0.0
 40
0.0
 40
0.0
 40
0.2
 40
0.2
 40
0.2
 40
0.2
 40
0.4
 40
0.4
 40
0.4
 40
0.4
 40
0.6
 40
0.6
 40
0.6
 40
0.6
 40
1.0
 40
1.0
 40
1.0
 40
1.0
 10
-102.6946
 20
-50.4265
 30
0.0
 10
-103.5783
 20
-50.4265
 30
0.0
 10
-104.2946
 20
-49.7102
 30
0.0
 10
-104.2946
 20
-48.8265
 30
0.0
 10
-104.2946
 20
-48.8265
 30
0.0
 10
-104.2946
 20
-47.9428
 30
0.0
 10
-103.5783
 20
-47.2265
 30
0.0
 10
-102.6946
 20
-47.2265
 30
0.0
 10
-102.6946
 20
-47.2265
 30
0.0
 10
-101.8109
 20
-47.2265
 30
0.0
 10
-101.0946
 20
-47.9428
 30
0.0
 10
-101.0946
 20
-48.8265
 30
0.0
 10
-101.0946
 20
-48.8265
 30
0.0
 10
-101.0946
 20
-49.7102
 30
0.0
 10
-101.8109
 20
-50.4265
 30
0.0
 10
-102.6946
 20
-50.4265
 30
0.0
  0
SPLINE
  5
95
330
1F
100
AcDbEntity
  8
Layer 1
 62
   250
370
    20
100
AcDbSpline
210
0.0
220
0.0
230
1.0
 70
    11
 71
     3
 72
    20
 73
    16
 74
     0
 42
0.0000000001
 43
0.0000000001
 12
1.0
 22
0.0
 32
0.0
 13
1.0
 23
0.0
 33
0.0
 40
0.0
 40
0.0
 40
0.0
 40
0.0
 40
0.2
 40
0.2
 40
0.2
 40
0.2
 40
0.4
 40
0.4
 40
0.4
 40
0.4
 40
0.6
 40
0.6
 40
0.6
 40
0.6
 40
1.0
 40
1.0
 40
1.0
 40
1.0
 10
-168.1426
 20
-50.1625
 30
0.0
 10
-169.0263
 20
-50.1625
 30
0.0
 10
-169.7426
 20
-49.4462
 30
0.0
 10
-169.7426
 20
-48.5625
 30
0.0
 10
-169.7426
 20
-48.5625
 30
0.0
 10
-169.7426
 20
-47.6788
 30
0.0
 10
-169.0263
 20
-46.9625
 30
0.0
 10
-168.1426
 20
-46.9625
 30
0.0
 10
-168.1426
 20
-46.9625
 30
0.0
 10
-167.2589
 20
-46.9625
 30
0.0
 10
-166.5426
 20
-47.6788
 30
0.0
 10
-166.5426
 20
-48.5625
 30
0.0
 10
-166.5426
 20
-48.5625
 30
0.0
 10
-166.5426
 20
-49.4462
 30
0.0
 10
-167.2589
 20
-50.1625
 30
0.0
 10
-168.1426
 20
-50.1625
 30
0.0
  0
SPLINE
  5
96
330
1F
100
AcDbEntity
  8
Layer 1
 62
   250
370
    20
100
AcDbSpline
210
0.0
220
0.0
230
1.0
 70
    24
 71
     3
 72
     8
 73
     4
 74
     0
 42
0.0000000001
 43
0.0000000001
 12
1.0
 22
0.0
 32
0.0
 13
1.0
 23
0.0
 33
0.0
 40
0.0
 40
0.0
 40
0.0
 40
0.0
 40
1.0
 40
1.0
 40
1.0
 40
1.0
 10
171.0111
 20
-69.5405
 30
0.0
 10
171.0111
 20
-69.5405
 30
0.0
 10
108.6484
 20
-69.5405
 30
0.0
 10
108.6484
 20
-69.5405
 30
0.0
  0
SPLINE
  5
97
330
1F
100
AcDbEntity
  8
Layer 1
 62
   250
370
    20
100
AcDbSpline
210
0.0
220
0.0
230
1.0
 70
     8
 71
     3
 72
     8
 73
     4
 74
     0
 42
0.0000000001
 43
0.0000000001
 12
1.0
 22
0.0
 32
0.0
 13
1.0
 23
0.0
 33
0.0
 40
0.0
 40
0.0
 40
0.0
 40
0.0
 40
1.0
 40
1.0
 40
1.0
 40
1.0
 10
108.6484
 20
-69.5405
 30
0.0
 10
107.4658
 20
-69.4565
 30
0.0
 10
106.7992
 20
-68.7898
 30
0.0
 10
106.6485
 20
-67.5405
 30
0.0
  0
SPLINE
  5
98
330
1F
100
AcDbEntity
  8
Layer 1
 62
   250
370
    20
100
AcDbSpline
210
0.0
220
0.0
230
1.0
 70
    24
 71
     3
 72
     8
 73
     4
 74
     0
 42
0.0000000001
 43
0.0000000001
 12
1.0
 22
0.0
 32
0.0
 13
1.0
 23
0.0
 33
0.0
 40
0.0
 40
0.0
 40
0.0
 40
0.0
 40
1.0
 40
1.0
 40
1.0
 40
1.0
 10
106.6485
 20
-67.5405
 30
0.0
 10
106.6485
 20
-67.5405
 30
0.0
 10
106.6485
 20
33.9401
 30
0.0
 10
106.6485
 20
33.9401
 30
0.0
  0
SPLINE
  5
99
330
1F
100
AcDbEntity
  8
Layer 1
 62
   250
370
    20
100
AcDbSpline
210
0.0
220
0.0
230
1.0
 70
     8
 71
     3
 72
     8
 73
     4
 74
     0
 42
0.0000000001
 43
0.0000000001
 12
1.0
 22
0.0
 32
0.0
 13
1.0
 23
0.0
 33
0.0
 40
0.0
 40
0.0
 40
0.0
 40
0.0
 40
1.0
 40
1.0
 40
1.0
 40
1.0
 10
106.6485
 20
33.9401
 30
0.0
 10
106.7529
 20
35.1443
 30
0.0
 10
107.4195
 20
35.8109
 30
0.0
 10
108.6484
 20
35.9401
 30
0.0
  0
SPLINE
  5
9A
330
1F
100
AcDbEntity
  8
Layer 1
 62
   250
370
    20
100
AcDbSpline
210
0.0
220
0.0
230
1.0
 70
    24
 71
     3
 72
     8
 73
     4
 74
     0
 42
0.0000000001
 43
0.0000000001
 12
1.0
 22
0.0
 32
0.0
 13
1.0
 23
0.0
 33
0.0
 40
0.0
 40
0.0
 40
0.0
 40
0.0
 40
1.0
 40
1.0
 40
1.0
 40
1.0
 10
108.6484
 20
35.9401
 30
0.0
 10
108.6484
 20
35.9401
 30
0.0
 10
171.0003
 20
35.9401
 30
0.0
 10
171.0003
 20
35.9401
 30
0.0
  0
SPLINE
  5
9B
330
1F
100
AcDbEntity
  8
Layer 1
 62
   250
370
    20
100
AcDbSpline
210
0.0
220
0.0
230
1.0
 70
    24
 71
     3
 72
     8
 73
     4
 74
     0
 42
0.0000000001
 43
0.0000000001
 12
1.0
 22
0.0
 32
0.0
 13
1.0
 23
0.0
 33
0.0
 40
0.0
 40
0.0
 40
0.0
 40
0.0
 40
1.0
 40
1.0
 40
1.0
 40
1.0
 10
171.0111
 20
-69.5405
 30
0.0
 10
171.0111
 20
-69.5405
 30
0.0
 10
171.0001
 20
35.9401
 30
0.0
 10
171.0001
 20
35.9401
 30
0.0
  0
SPLINE
  5
9C
330
1F
100
AcDbEntity
  8
Layer 1
 62
   250
370
    20
100
AcDbSpline
210
0.0
220
0.0
230
1.0
 70
    11
 71
     3
 72
    36
 73
    32
 74
     0
 42
0.0000000001
 43
0.0000000001
 12
1.0
 22
0.0
 32
0.0
 13
1.0
 23
0.0
 33
0.0
 40
0.0
 40
0.0
 40
0.0
 40
0.0
 40
0.1111111111111111
 40
0.1111111111111111
 40
0.1111111111111111
 40
0.1111111111111111
 40
0.2222222222222222
 40
0.2222222222222222
 40
0.2222222222222222
 40
0.2222222222222222
 40
0.3333333333333333
 40
0.3333333333333333
 40
0.3333333333333333
 40
0.3333333333333333
 40
0.4444444444444444
 40
0.4444444444444444
 40
0.4444444444444444
 40
0.4444444444444444
 40
0.5555555555555556
 40
0.5555555555555556
 40
0.5555555555555556
 40
0.5555555555555556
 40
0.6666666666666666
 40
0.6666666666666666
 40
0.6666666666666666
 40
0.6666666666666666
 40
0.7777777777777778
 40
0.7777777777777778
 40
0.7777777777777778
 40
0.7777777777777778
 40
1.0
 40
1.0
 40
1.0
 40
1.0
 10
112.9632
 20
-58.2517
 30
0.0
 10
112.9632
 20
-58.2517
 30
0.0
 10
119.5468
 20
-58.2517
 30
0.0
 10
119.5468
 20
-58.2517
 30
0.0
 10
119.5468
 20
-58.2517
 30
0.0
 10
120.6468
 20
-58.2517
 30
0.0
 10
121.5468
 20
-57.3517
 30
0.0
 10
121.5468
 20
-56.2517
 30
0.0
 10
121.5468
 20
-56.2517
 30
0.0
 10
121.5468
 20
-56.2517
 30
0.0
 10
121.5468
 20
22.6513
 30
0.0
 10
121.5468
 20
22.6513
 30
0.0
 10
121.5468
 20
22.6513
 30
0.0
 10
121.5468
 20
23.7513
 30
0.0
 10
120.6468
 20
24.6513
 30
0.0
 10
119.5468
 20
24.6513
 30
0.0
 10
119.5468
 20
24.6513
 30
0.0
 10
119.5468
 20
24.6513
 30
0.0
 10
112.9632
 20
24.6513
 30
0.0
 10
112.9632
 20
24.6513
 30
0.0
 10
112.9632
 20
24.6513
 30
0.0
 10
111.8632
 20
24.6513
 30
0.0
 10
110.9632
 20
23.7513
 30
0.0
 10
110.9632
 20
22.6513
 30
0.0
 10
110.9632
 20
22.6513
 30
0.0
 10
110.9632
 20
22.6513
 30
0.0
 10
110.9632
 20
-56.2517
 30
0.0
 10
110.9632
 20
-56.2517
 30
0.0
 10
110.9632
 20
-56.2517
 30
0.0
 10
110.9632
 20
-57.3517
 30
0.0
 10
111.8632
 20
-58.2517
 30
0.0
 10
112.9632
 20
-58.2517
 30
0.0
  0
SPLINE
  5
9D
330
1F
100
AcDbEntity
  8
Layer 1
 62
   250
370
    20
100
AcDbSpline
210
0.0
220
0.0
230
1.0
 70
    11
 71
     3
 72
    20
 73
    16
 74
     0
 42
0.0000000001
 43
0.0000000001
 12
1.0
 22
0.0
 32
0.0
 13
1.0
 23
0.0
 33
0.0
 40
0.0
 40
0.0
 40
0.0
 40
0.0
 40
0.2
 40
0.2
 40
0.2
 40
0.2
 40
0.4
 40
0.4
 40
0.4
 40
0.4
 40
0.6
 40
0.6
 40
0.6
 40
0.6
 40
1.0
 40
1.0
 40
1.0
 40
1.0
 10
161.8749
 20
-59.8662
 30
0.0
 10
160.9912
 20
-59.8662
 30
0.0
 10
160.2749
 20
-59.1499
 30
0.0
 10
160.2749
 20
-58.2662
 30
0.0
 10
160.2749
 20
-58.2662
 30
0.0
 10
160.2749
 20
-57.3825
 30
0.0
 10
160.9912
 20
-56.6662
 30
0.0
 10
161.8749
 20
-56.6662
 30
0.0
 10
161.8749
 20
-56.6662
 30
0.0
 10
162.7586
 20
-56.6662
 30
0.0
 10
163.4749
 20
-57.3825
 30
0.0
 10
163.4749
 20
-58.2662
 30
0.0
 10
163.4749
 20
-58.2662
 30
0.0
 10
163.4749
 20
-59.1499
 30
0.0
 10
162.7586
 20
-59.8662
 30
0.0
 10
161.8749
 20
-59.8662
 30
0.0
  0
SPLINE
  5
9E
330
1F
100
AcDbEntity
  8
Layer 1
 62
   250
370
    20
100
AcDbSpline
210
0.0
220
0.0
230
1.0
 70
    11
 71
     3
 72
    20
 73
    16
 74
     0
 42
0.0000000001
 43
0.0000000001
 12
1.0
 22
0.0
 32
0.0
 13
1.0
 23
0.0
 33
0.0
 40
0.0
 40
0.0
 40
0.0
 40
0.0
 40
0.2
 40
0.2
 40
0.2
 40
0.2
 40
0.4
 40
0.4
 40
0.4
 40
0.4
 40
0.6
 40
0.6
 40
0.6
 40
0.6
 40
1.0
 40
1.0
 40
1.0
 40
1.0
 10
161.8752
 20
23.0663
 30
0.0
 10
160.9915
 20
23.0663
 30
0.0
 10
160.2752
 20
23.7826
 30
0.0
 10
160.2752
 20
24.6663
 30
0.0
 10
160.2752
 20
24.6663
 30
0.0
 10
160.2752
 20
25.55
 30
0.0
 10
160.9915
 20
26.2663
 30
0.0
 10
161.8752
 20
26.2663
 30
0.0
 10
161.8752
 20
26.2663
 30
0.0
 10
162.7589
 20
26.2663
 30
0.0
 10
163.4752
 20
25.55
 30
0.0
 10
163.4752
 20
24.6663
 30
0.0
 10
163.4752
 20
24.6663
 30
0.0
 10
163.4752
 20
23.7826
 30
0.0
 10
162.7589
 20
23.0663
 30
0.0
 10
161.8752
 20
23.0663
 30
0.0
  0
SPLINE
  5
9F
330
1F
100
AcDbEntity
  8
Layer 1
 62
   250
370
    20
100
AcDbSpline
210
0.0
220
0.0
230
1.0
 70
    11
 71
     3
 72
    20
 73
    16
 74
     0
 42
0.0000000001
 43
0.0000000001
 12
1.0
 22
0.0
 32
0.0
 13
1.0
 23
0.0
 33
0.0
 40
0.0
 40
0.0
 40
0.0
 40
0.0
 40
0.2
 40
0.2
 40
0.2
 40
0.2
 40
0.4
 40
0.4
 40
0.4
 40
0.4
 40
0.6
 40
0.6
 40
0.6
 40
0.6
 40
1.0
 40
1.0
 40
1.0
 40
1.0
 10
151.8747
 20
-59.8662
 30
0.0
 10
150.991
 20
-59.8662
 30
0.0
 10
150.2747
 20
-59.1499
 30
0.0
 10
150.2747
 20
-58.2662
 30
0.0
 10
150.2747
 20
-58.2662
 30
0.0
 10
150.2747
 20
-57.3825
 30
0.0
 10
150.991
 20
-56.6662
 30
0.0
 10
151.8747
 20
-56.6662
 30
0.0
 10
151.8747
 20
-56.6662
 30
0.0
 10
152.7584
 20
-56.6662
 30
0.0
 10
153.4747
 20
-57.3825
 30
0.0
 10
153.4747
 20
-58.2662
 30
0.0
 10
153.4747
 20
-58.2662
 30
0.0
 10
153.4747
 20
-59.1499
 30
0.0
 10
152.7584
 20
-59.8662
 30
0.0
 10
151.8747
 20
-59.8662
 30
0.0
  0
SPLINE
  5
A0
330
1F
100
AcDbEntity
  8
Layer 1
 62
   250
370
    20
100
AcDbSpline
210
0.0
220
0.0
230
1.0
 70
    11
 71
     3
 72
    20
 73
    16
 74
     0
 42
0.0000000001
 43
0.0000000001
 12
1.0
 22
0.0
 32
0.0
 13
1.0
 23
0.0
 33
0.0
 40
0.0
 40
0.0
 40
0.0
 40
0.0
 40
0.2
 40
0.2
 40
0.2
 40
0.2
 40
0.4
 40
0.4
 40
0.4
 40
0.4
 40
0.6
 40
0.6
 40
0.6
 40
0.6
 40
1.0
 40
1.0
 40
1.0
 40
1.0
 10
151.875
 20
23.0663
 30
0.0
 10
150.9913
 20
23.0663
 30
0.0
 10
150.275
 20
23.7826
 30
0.0
 10
150.275
 20
24.6663
 30
0.0
 10
150.275
 20
24.6663
 30
0.0
 10
150.275
 20
25.55
 30
0.0
 10
150.9913
 20
26.2663
 30
0.0
 10
151.875
 20
26.2663
 30
0.0
 10
151.875
 20
26.2663
 30
0.0
 10
152.7587
 20
26.2663
 30
0.0
 10
153.475
 20
25.55
 30
0.0
 10
153.475
 20
24.6663
 30
0.0
 10
153.475
 20
24.6663
 30
0.0
 10
153.475
 20
23.7826
 30
0.0
 10
152.7587
 20
23.0663
 30
0.0
 10
151.875
 20
23.0663
 30
0.0
  0
SPLINE
  5
A1
330
1F
100
AcDbEntity
  8
Layer 1
 62
   250
370
    20
100
AcDbSpline
210
0.0
220
0.0
230
1.0
 70
    24
 71
     3
 72
     8
 73
     4
 74
     0
 42
0.0000000001
 43
0.0000000001
 12
1.0
 22
0.0
 32
0.0
 13
1.0
 23
0.0
 33
0.0
 40
0.0
 40
0.0
 40
0.0
 40
0.0
 40
1.0
 40
1.0
 40
1.0
 40
1.0
 10
106.6169
 20
36.2489
 30
0.0
 10
106.6169
 20
36.2489
 30
0.0
 10
168.9796
 20
36.2489
 30
0.0
 10
168.9796
 20
36.2489
 30
0.0
  0
SPLINE
  5
A2
330
1F
100
AcDbEntity
  8
Layer 1
 62
   250
370
    20
100
AcDbSpline
210
0.0
220
0.0
230
1.0
 70
     8
 71
     3
 72
     8
 73
     4
 74
     0
 42
0.0000000001
 43
0.0000000001
 12
1.0
 22
0.0
 32
0.0
 13
1.0
 23
0.0
 33
0.0
 40
0.0
 40
0.0
 40
0.0
 40
0.0
 40
1.0
 40
1.0
 40
1.0
 40
1.0
 10
168.9796
 20
36.2489
 30
0.0
 10
170.1622
 20
36.3329
 30
0.0
 10
170.8288
 20
36.9996
 30
0.0
 10
170.9795
 20
38.2489
 30
0.0
  0
SPLINE
  5
A3
330
1F
100
AcDbEntity
  8
Layer 1
 62
   250
370
    20
100
AcDbSpline
210
0.0
220
0.0
230
1.0
 70
    24
 71
     3
 72
     8
 73
     4
 74
     0
 42
0.0000000001
 43
0.0000000001
 12
1.0
 22
0.0
 32
0.0
 13
1.0
 23
0.0
 33
0.0
 40
0.0
 40
0.0
 40
0.0
 40
0.0
 40
1.0
 40
1.0
 40
1.0
 40
1.0
 10
170.9795
 20
38.2489
 30
0.0
 10
170.9795
 20
38.2489
 30
0.0
 10
170.9795
 20
139.7295
 30
0.0
 10
170.9795
 20
139.7295
 30
0.0
  0
SPLINE
  5
A4
330
1F
100
AcDbEntity
  8
Layer 1
 62
   250
370
    20
100
AcDbSpline
210
0.0
220
0.0
230
1.0
 70
     8
 71
     3
 72
     8
 73
     4
 74
     0
 42
0.0000000001
 43
0.0000000001
 12
1.0
 22
0.0
 32
0.0
 13
1.0
 23
0.0
 33
0.0
 40
0.0
 40
0.0
 40
0.0
 40
0.0
 40
1.0
 40
1.0
 40
1.0
 40
1.0
 10
170.9795
 20
139.7295
 30
0.0
 10
170.8751
 20
140.9337
 30
0.0
 10
170.2085
 20
141.6003
 30
0.0
 10
168.9796
 20
141.7295
 30
0.0
  0
SPLINE
  5
A5
330
1F
100
AcDbEntity
  8
Layer 1
 62
   250
370
    20
100
AcDbSpline
210
0.0
220
0.0
230
1.0
 70
    24
 71
     3
 72
     8
 73
     4
 74
     0
 42
0.0000000001
 43
0.0000000001
 12
1.0
 22
0.0
 32
0.0
 13
1.0
 23
0.0
 33
0.0
 40
0.0
 40
0.0
 40
0.0
 40
0.0
 40
1.0
 40
1.0
 40
1.0
 40
1.0
 10
168.9796
 20
141.7295
 30
0.0
 10
168.9796
 20
141.7295
 30
0.0
 10
106.6277
 20
141.7295
 30
0.0
 10
106.6277
 20
141.7295
 30
0.0
  0
SPLINE
  5
A6
330
1F
100
AcDbEntity
  8
Layer 1
 62
   250
370
    20
100
AcDbSpline
210
0.0
220
0.0
230
1.0
 70
    24
 71
     3
 72
     8
 73
     4
 74
     0
 42
0.0000000001
 43
0.0000000001
 12
1.0
 22
0.0
 32
0.0
 13
1.0
 23
0.0
 33
0.0
 40
0.0
 40
0.0
 40
0.0
 40
0.0
 40
1.0
 40
1.0
 40
1.0
 40
1.0
 10
106.6169
 20
36.2489
 30
0.0
 10
106.6169
 20
36.2489
 30
0.0
 10
106.6279
 20
141.7295
 30
0.0
 10
106.6279
 20
141.7295
 30
0.0
  0
SPLINE
  5
A7
330
1F
100
AcDbEntity
  8
Layer 1
 62
   250
370
    20
100
AcDbSpline
210
0.0
220
0.0
230
1.0
 70
    11
 71
     3
 72
    36
 73
    32
 74
     0
 42
0.0000000001
 43
0.0000000001
 12
1.0
 22
0.0
 32
0.0
 13
1.0
 23
0.0
 33
0.0
 40
0.0
 40
0.0
 40
0.0
 40
0.0
 40
0.1111111111111111
 40
0.1111111111111111
 40
0.1111111111111111
 40
0.1111111111111111
 40
0.2222222222222222
 40
0.2222222222222222
 40
0.2222222222222222
 40
0.2222222222222222
 40
0.3333333333333333
 40
0.3333333333333333
 40
0.3333333333333333
 40
0.3333333333333333
 40
0.4444444444444444
 40
0.4444444444444444
 40
0.4444444444444444
 40
0.4444444444444444
 40
0.5555555555555556
 40
0.5555555555555556
 40
0.5555555555555556
 40
0.5555555555555556
 40
0.6666666666666666
 40
0.6666666666666666
 40
0.6666666666666666
 40
0.6666666666666666
 40
0.7777777777777778
 40
0.7777777777777778
 40
0.7777777777777778
 40
0.7777777777777778
 40
1.0
 40
1.0
 40
1.0
 40
1.0
 10
164.6648
 20
47.5377
 30
0.0
 10
164.6648
 20
47.5377
 30
0.0
 10
158.0812
 20
47.5377
 30
0.0
 10
158.0812
 20
47.5377
 30
0.0
 10
158.0812
 20
47.5377
 30
0.0
 10
156.9812
 20
47.5377
 30
0.0
 10
156.0812
 20
48.4377
 30
0.0
 10
156.0812
 20
49.5377
 30
0.0
 10
156.0812
 20
49.5377
 30
0.0
 10
156.0812
 20
49.5377
 30
0.0
 10
156.0812
 20
128.4407
 30
0.0
 10
156.0812
 20
128.4407
 30
0.0
 10
156.0812
 20
128.4407
 30
0.0
 10
156.0812
 20
129.5407
 30
0.0
 10
156.9812
 20
130.4407
 30
0.0
 10
158.0812
 20
130.4407
 30
0.0
 10
158.0812
 20
130.4407
 30
0.0
 10
158.0812
 20
130.4407
 30
0.0
 10
164.6648
 20
130.4407
 30
0.0
 10
164.6648
 20
130.4407
 30
0.0
 10
164.6648
 20
130.4407
 30
0.0
 10
165.7648
 20
130.4407
 30
0.0
 10
166.6648
 20
129.5407
 30
0.0
 10
166.6648
 20
128.4407
 30
0.0
 10
166.6648
 20
128.4407
 30
0.0
 10
166.6648
 20
128.4407
 30
0.0
 10
166.6648
 20
49.5377
 30
0.0
 10
166.6648
 20
49.5377
 30
0.0
 10
166.6648
 20
49.5377
 30
0.0
 10
166.6648
 20
48.4377
 30
0.0
 10
165.7648
 20
47.5377
 30
0.0
 10
164.6648
 20
47.5377
 30
0.0
  0
SPLINE
  5
A8
330
1F
100
AcDbEntity
  8
Layer 1
 62
   250
370
    20
100
AcDbSpline
210
0.0
220
0.0
230
1.0
 70
    11
 71
     3
 72
    20
 73
    16
 74
     0
 42
0.0000000001
 43
0.0000000001
 12
1.0
 22
0.0
 32
0.0
 13
1.0
 23
0.0
 33
0.0
 40
0.0
 40
0.0
 40
0.0
 40
0.0
 40
0.2
 40
0.2
 40
0.2
 40
0.2
 40
0.4
 40
0.4
 40
0.4
 40
0.4
 40
0.6
 40
0.6
 40
0.6
 40
0.6
 40
1.0
 40
1.0
 40
1.0
 40
1.0
 10
115.7531
 20
45.9232
 30
0.0
 10
116.6368
 20
45.9232
 30
0.0
 10
117.3531
 20
46.6395
 30
0.0
 10
117.3531
 20
47.5232
 30
0.0
 10
117.3531
 20
47.5232
 30
0.0
 10
117.3531
 20
48.4069
 30
0.0
 10
116.6368
 20
49.1232
 30
0.0
 10
115.7531
 20
49.1232
 30
0.0
 10
115.7531
 20
49.1232
 30
0.0
 10
114.8694
 20
49.1232
 30
0.0
 10
114.1531
 20
48.4069
 30
0.0
 10
114.1531
 20
47.5232
 30
0.0
 10
114.1531
 20
47.5232
 30
0.0
 10
114.1531
 20
46.6395
 30
0.0
 10
114.8694
 20
45.9232
 30
0.0
 10
115.7531
 20
45.9232
 30
0.0
  0
SPLINE
  5
A9
330
1F
100
AcDbEntity
  8
Layer 1
 62
   250
370
    20
100
AcDbSpline
210
0.0
220
0.0
230
1.0
 70
    11
 71
     3
 72
    20
 73
    16
 74
     0
 42
0.0000000001
 43
0.0000000001
 12
1.0
 22
0.0
 32
0.0
 13
1.0
 23
0.0
 33
0.0
 40
0.0
 40
0.0
 40
0.0
 40
0.0
 40
0.2
 40
0.2
 40
0.2
 40
0.2
 40
0.4
 40
0.4
 40
0.4
 40
0.4
 40
0.6
 40
0.6
 40
0.6
 40
0.6
 40
1.0
 40
1.0
 40
1.0
 40
1.0
 10
115.7528
 20
128.8557
 30
0.0
 10
116.6365
 20
128.8557
 30
0.0
 10
117.3528
 20
129.572
 30
0.0
 10
117.3528
 20
130.4557
 30
0.0
 10
117.3528
 20
130.4557
 30
0.0
 10
117.3528
 20
131.3394
 30
0.0
 10
116.6365
 20
132.0557
 30
0.0
 10
115.7528
 20
132.0557
 30
0.0
 10
115.7528
 20
132.0557
 30
0.0
 10
114.8691
 20
132.0557
 30
0.0
 10
114.1528
 20
131.3394
 30
0.0
 10
114.1528
 20
130.4557
 30
0.0
 10
114.1528
 20
130.4557
 30
0.0
 10
114.1528
 20
129.572
 30
0.0
 10
114.8691
 20
128.8557
 30
0.0
 10
115.7528
 20
128.8557
 30
0.0
  0
SPLINE
  5
AA
330
1F
100
AcDbEntity
  8
Layer 1
 62
   250
370
    20
100
AcDbSpline
210
0.0
220
0.0
230
1.0
 70
    11
 71
     3
 72
    20
 73
    16
 74
     0
 42
0.0000000001
 43
0.0000000001
 12
1.0
 22
0.0
 32
0.0
 13
1.0
 23
0.0
 33
0.0
 40
0.0
 40
0.0
 40
0.0
 40
0.0
 40
0.2
 40
0.2
 40
0.2
 40
0.2
 40
0.4
 40
0.4
 40
0.4
 40
0.4
 40
0.6
 40
0.6
 40
0.6
 40
0.6
 40
1.0
 40
1.0
 40
1.0
 40
1.0
 10
125.7533
 20
45.9232
 30
0.0
 10
126.637
 20
45.9232
 30
0.0
 10
127.3533
 20
46.6395
 30
0.0
 10
127.3533
 20
47.5232
 30
0.0
 10
127.3533
 20
47.5232
 30
0.0
 10
127.3533
 20
48.4069
 30
0.0
 10
126.637
 20
49.1232
 30
0.0
 10
125.7533
 20
49.1232
 30
0.0
 10
125.7533
 20
49.1232
 30
0.0
 10
124.8696
 20
49.1232
 30
0.0
 10
124.1533
 20
48.4069
 30
0.0
 10
124.1533
 20
47.5232
 30
0.0
 10
124.1533
 20
47.5232
 30
0.0
 10
124.1533
 20
46.6395
 30
0.0
 10
124.8696
 20
45.9232
 30
0.0
 10
125.7533
 20
45.9232
 30
0.0
  0
SPLINE
  5
AB
330
1F
100
AcDbEntity
  8
Layer 1
 62
   250
370
    20
100
AcDbSpline
210
0.0
220
0.0
230
1.0
 70
    11
 71
     3
 72
    20
 73
    16
 74
     0
 42
0.0000000001
 43
0.0000000001
 12
1.0
 22
0.0
 32
0.0
 13
1.0
 23
0.0
 33
0.0
 40
0.0
 40
0.0
 40
0.0
 40
0.0
 40
0.2
 40
0.2
 40
0.2
 40
0.2
 40
0.4
 40
0.4
 40
0.4
 40
0.4
 40
0.6
 40
0.6
 40
0.6
 40
0.6
 40
1.0
 40
1.0
 40
1.0
 40
1.0
 10
125.753
 20
128.8557
 30
0.0
 10
126.6367
 20
128.8557
 30
0.0
 10
127.353
 20
129.572
 30
0.0
 10
127.353
 20
130.4557
 30
0.0
 10
127.353
 20
130.4557
 30
0.0
 10
127.353
 20
131.3394
 30
0.0
 10
126.6367
 20
132.0557
 30
0.0
 10
125.753
 20
132.0557
 30
0.0
 10
125.753
 20
132.0557
 30
0.0
 10
124.8693
 20
132.0557
 30
0.0
 10
124.153
 20
131.3394
 30
0.0
 10
124.153
 20
130.4557
 30
0.0
 10
124.153
 20
130.4557
 30
0.0
 10
124.153
 20
129.572
 30
0.0
 10
124.8693
 20
128.8557
 30
0.0
 10
125.753
 20
128.8557
 30
0.0
  0
SPLINE
  5
AC
330
1F
100
AcDbEntity
  8
Layer 1
 62
   250
370
    20
100
AcDbSpline
210
0.0
220
0.0
230
1.0
 70
    11
 71
     3
 72
    20
 73
    16
 74
     0
 42
0.0000000001
 43
0.0000000001
 12
1.0
 22
0.0
 32
0.0
 13
1.0
 23
0.0
 33
0.0
 40
0.0
 40
0.0
 40
0.0
 40
0.0
 40
0.2
 40
0.2
 40
0.2
 40
0.2
 40
0.4
 40
0.4
 40
0.4
 40
0.4
 40
0.6
 40
0.6
 40
0.6
 40
0.6
 40
1.0
 40
1.0
 40
1.0
 40
1.0
 10
100.1498
 20
59.9137
 30
0.0
 10
98.5482
 20
59.9137
 30
0.0
 10
97.2498
 20
61.2121
 30
0.0
 10
97.2498
 20
62.8137
 30
0.0
 10
97.2498
 20
62.8137
 30
0.0
 10
97.2498
 20
64.4153
 30
0.0
 10
98.5482
 20
65.7137
 30
0.0
 10
100.1498
 20
65.7137
 30
0.0
 10
100.1498
 20
65.7137
 30
0.0
 10
101.7514
 20
65.7137
 30
0.0
 10
103.0498
 20
64.4153
 30
0.0
 10
103.0498
 20
62.8137
 30
0.0
 10
103.0498
 20
62.8137
 30
0.0
 10
103.0498
 20
61.2121
 30
0.0
 10
101.7514
 20
59.9137
 30
0.0
 10
100.1498
 20
59.9137
 30
0.0
  0
SPLINE
  5
AD
330
1F
100
AcDbEntity
  8
Layer 1
 62
   250
370
    20
100
AcDbSpline
210
0.0
220
0.0
230
1.0
 70
    11
 71
     3
 72
    20
 73
    16
 74
     0
 42
0.0000000001
 43
0.0000000001
 12
1.0
 22
0.0
 32
0.0
 13
1.0
 23
0.0
 33
0.0
 40
0.0
 40
0.0
 40
0.0
 40
0.0
 40
0.2
 40
0.2
 40
0.2
 40
0.2
 40
0.4
 40
0.4
 40
0.4
 40
0.4
 40
0.6
 40
0.6
 40
0.6
 40
0.6
 40
1.0
 40
1.0
 40
1.0
 40
1.0
 10
100.1498
 20
167.9337
 30
0.0
 10
98.5482
 20
167.9337
 30
0.0
 10
97.2498
 20
169.2321
 30
0.0
 10
97.2498
 20
170.8337
 30
0.0
 10
97.2498
 20
170.8337
 30
0.0
 10
97.2498
 20
172.4353
 30
0.0
 10
98.5482
 20
173.7337
 30
0.0
 10
100.1498
 20
173.7337
 30
0.0
 10
100.1498
 20
173.7337
 30
0.0
 10
101.7514
 20
173.7337
 30
0.0
 10
103.0498
 20
172.4353
 30
0.0
 10
103.0498
 20
170.8337
 30
0.0
 10
103.0498
 20
170.8337
 30
0.0
 10
103.0498
 20
169.2321
 30
0.0
 10
101.7514
 20
167.9337
 30
0.0
 10
100.1498
 20
167.9337
 30
0.0
  0
SPLINE
  5
AE
330
1F
100
AcDbEntity
  8
Layer 1
 62
   250
370
    20
100
AcDbSpline
210
0.0
220
0.0
230
1.0
 70
    11
 71
     3
 72
    20
 73
    16
 74
     0
 42
0.0000000001
 43
0.0000000001
 12
1.0
 22
0.0
 32
0.0
 13
1.0
 23
0.0
 33
0.0
 40
0.0
 40
0.0
 40
0.0
 40
0.0
 40
0.2
 40
0.2
 40
0.2
 40
0.2
 40
0.4
 40
0.4
 40
0.4
 40
0.4
 40
0.6
 40
0.6
 40
0.6
 40
0.6
 40
1.0
 40
1.0
 40
1.0
 40
1.0
 10
-87.8502
 20
59.9137
 30
0.0
 10
-89.4518
 20
59.9137
 30
0.0
 10
-90.7502
 20
61.2121
 30
0.0
 10
-90.7502
 20
62.8137
 30
0.0
 10
-90.7502
 20
62.8137
 30
0.0
 10
-90.7502
 20
64.4153
 30
0.0
 10
-89.4518
 20
65.7137
 30
0.0
 10
-87.8502
 20
65.7137
 30
0.0
 10
-87.8502
 20
65.7137
 30
0.0
 10
-86.2486
 20
65.7137
 30
0.0
 10
-84.9502
 20
64.4153
 30
0.0
 10
-84.9502
 20
62.8137
 30
0.0
 10
-84.9502
 20
62.8137
 30
0.0
 10
-84.9502
 20
61.2121
 30
0.0
 10
-86.2486
 20
59.9137
 30
0.0
 10
-87.8502
 20
59.9137
 30
0.0
  0
SPLINE
  5
AF
330
1F
100
AcDbEntity
  8
Layer 1
 62
   250
370
    20
100
AcDbSpline
210
0.0
220
0.0
230
1.0
 70
    11
 71
     3
 72
    20
 73
    16
 74
     0
 42
0.0000000001
 43
0.0000000001
 12
1.0
 22
0.0
 32
0.0
 13
1.0
 23
0.0
 33
0.0
 40
0.0
 40
0.0
 40
0.0
 40
0.0
 40
0.2
 40
0.2
 40
0.2
 40
0.2
 40
0.4
 40
0.4
 40
0.4
 40
0.4
 40
0.6
 40
0.6
 40
0.6
 40
0.6
 40
1.0
 40
1.0
 40
1.0
 40
1.0
 10
-87.8502
 20
167.9337
 30
0.0
 10
-89.4518
 20
167.9337
 30
0.0
 10
-90.7502
 20
169.2321
 30
0.0
 10
-90.7502
 20
170.8337
 30
0.0
 10
-90.7502
 20
170.8337
 30
0.0
 10
-90.7502
 20
172.4353
 30
0.0
 10
-89.4518
 20
173.7337
 30
0.0
 10
-87.8502
 20
173.7337
 30
0.0
 10
-87.8502
 20
173.7337
 30
0.0
 10
-86.2486
 20
173.7337
 30
0.0
 10
-84.9502
 20
172.4353
 30
0.0
 10
-84.9502
 20
170.8337
 30
0.0
 10
-84.9502
 20
170.8337
 30
0.0
 10
-84.9502
 20
169.2321
 30
0.0
 10
-86.2486
 20
167.9337
 30
0.0
 10
-87.8502
 20
167.9337
 30
0.0
  0
SPLINE
  5
B0
330
1F
100
AcDbEntity
  8
Layer 1
 62
   250
370
    20
100
AcDbSpline
210
0.0
220
0.0
230
1.0
 70
    11
 71
     3
 72
    20
 73
    16
 74
     0
 42
0.0000000001
 43
0.0000000001
 12
1.0
 22
0.0
 32
0.0
 13
1.0
 23
0.0
 33
0.0
 40
0.0
 40
0.0
 40
0.0
 40
0.0
 40
0.2
 40
0.2
 40
0.2
 40
0.2
 40
0.4
 40
0.4
 40
0.4
 40
0.4
 40
0.6
 40
0.6
 40
0.6
 40
0.6
 40
1.0
 40
1.0
 40
1.0
 40
1.0
 10
-18.2427
 20
126.9971
 30
0.0
 10
-19.1264
 20
126.9971
 30
0.0
 10
-19.8427
 20
127.7134
 30
0.0
 10
-19.8427
 20
128.5971
 30
0.0
 10
-19.8427
 20
128.5971
 30
0.0
 10
-19.8427
 20
129.4808
 30
0.0
 10
-19.1264
 20
130.1971
 30
0.0
 10
-18.2427
 20
130.1971
 30
0.0
 10
-18.2427
 20
130.1971
 30
0.0
 10
-17.359
 20
130.1971
 30
0.0
 10
-16.6427
 20
129.4808
 30
0.0
 10
-16.6427
 20
128.5971
 30
0.0
 10
-16.6427
 20
128.5971
 30
0.0
 10
-16.6427
 20
127.7134
 30
0.0
 10
-17.359
 20
126.9971
 30
0.0
 10
-18.2427
 20
126.9971
 30
0.0
  0
SPLINE
  5
B1
330
1F
100
AcDbEntity
  8
Layer 1
 62
   250
370
    20
100
AcDbSpline
210
0.0
220
0.0
230
1.0
 70
    11
 71
     3
 72
    20
 73
    16
 74
     0
 42
0.0000000001
 43
0.0000000001
 12
1.0
 22
0.0
 32
0.0
 13
1.0
 23
0.0
 33
0.0
 40
0.0
 40
0.0
 40
0.0
 40
0.0
 40
0.2
 40
0.2
 40
0.2
 40
0.2
 40
0.4
 40
0.4
 40
0.4
 40
0.4
 40
0.6
 40
0.6
 40
0.6
 40
0.6
 40
1.0
 40
1.0
 40
1.0
 40
1.0
 10
-18.2427
 20
148.436
 30
0.0
 10
-19.1264
 20
148.436
 30
0.0
 10
-19.8427
 20
149.1523
 30
0.0
 10
-19.8427
 20
150.036
 30
0.0
 10
-19.8427
 20
150.036
 30
0.0
 10
-19.8427
 20
150.9197
 30
0.0
 10
-19.1264
 20
151.636
 30
0.0
 10
-18.2427
 20
151.636
 30
0.0
 10
-18.2427
 20
151.636
 30
0.0
 10
-17.359
 20
151.636
 30
0.0
 10
-16.6427
 20
150.9197
 30
0.0
 10
-16.6427
 20
150.036
 30
0.0
 10
-16.6427
 20
150.036
 30
0.0
 10
-16.6427
 20
149.1523
 30
0.0
 10
-17.359
 20
148.436
 30
0.0
 10
-18.2427
 20
148.436
 30
0.0
  0
LWPOLYLINE
  5
B2
330
1F
100
AcDbEntity
  8
Layer 1
 62
   250
370
    20
100
AcDbPolyline
 90
        5
 70
     1
 43
0.0
 10
-219.4744
 20
30.6713
 10
-191.1482
 20
30.6713
 10
-191.1482
 20
62.5743
 10
-219.4744
 20
62.5743
 10
-219.4744
 20
30.6713
  0
ELLIPSE
  5
B3
330
1F
100
AcDbEntity
  8
Layer 1
 62
   250
370
    20
100
AcDbEllipse
 10
-216.0822
 20
57.3124
 30
0.0
 11
0.0
 21
1.6
 31
0.0
210
0.0
220
0.0
230
1.0
 40
1.0
 41
0.0
 42
6.283185307179586
  0
ELLIPSE
  5
B4
330
1F
100
AcDbEntity
  8
Layer 1
 62
   250
370
    20
100
AcDbEllipse
 10
-216.0822
 20
35.8735
 30
0.0
 11
0.0
 21
1.6
 31
0.0
210
0.0
220
0.0
230
1.0
 40
1.0
 41
0.0
 42
6.283185307179586
  0
SPLINE
  5
B5
330
1F
100
AcDbEntity
  8
Layer 1
 62
   250
370
    20
100
AcDbSpline
210
0.0
220
0.0
230
1.0
 70
    11
 71
     3
 72
    20
 73
    16
 74
     0
 42
0.0000000001
 43
0.0000000001
 12
1.0
 22
0.0
 32
0.0
 13
1.0
 23
0.0
 33
0.0
 40
0.0
 40
0.0
 40
0.0
 40
0.0
 40
0.2
 40
0.2
 40
0.2
 40
0.2
 40
0.4
 40
0.4
 40
0.4
 40
0.4
 40
0.6
 40
0.6
 40
0.6
 40
0.6
 40
1.0
 40
1.0
 40
1.0
 40
1.0
 10
-217.7142
 20
62.8104
 30
0.0
 10
-217.7142
 20
62.8104
 30
0.0
 10
-217.7142
 20
180.4618
 30
0.0
 10
-217.7142
 20
180.4618
 30
0.0
 10
-217.7142
 20
180.4618
 30
0.0
 10
-217.7142
 20
180.4618
 30
0.0
 10
-163.0336
 20
180.4618
 30
0.0
 10
-163.0336
 20
180.4618
 30
0.0
 10
-163.0336
 20
180.4618
 30
0.0
 10
-163.0336
 20
180.4618
 30
0.0
 10
-163.0336
 20
62.8104
 30
0.0
 10
-163.0336
 20
62.8104
 30
0.0
 10
-163.0336
 20
62.8104
 30
0.0
 10
-163.0336
 20
62.8104
 30
0.0
 10
-217.7142
 20
62.8104
 30
0.0
 10
-217.7142
 20
62.8104
 30
0.0
  0
SPLINE
  5
B6
330
1F
100
AcDbEntity
  8
Layer 1
 62
   250
370
    20
100
AcDbSpline
210
0.0
220
0.0
230
1.0
 70
    11
 71
     3
 72
    20
 73
    16
 74
     0
 42
0.0000000001
 43
0.0000000001
 12
1.0
 22
0.0
 32
0.0
 13
1.0
 23
0.0
 33
0.0
 40
0.0
 40
0.0
 40
0.0
 40
0.0
 40
0.2
 40
0.2
 40
0.2
 40
0.2
 40
0.4
 40
0.4
 40
0.4
 40
0.4
 40
0.6
 40
0.6
 40
0.6
 40
0.6
 40
1.0
 40
1.0
 40
1.0
 40
1.0
 10
-215.5774
 20
66.6184
 30
0.0
 10
-215.5774
 20
67.723
 30
0.0
 10
-214.682
 20
68.6184
 30
0.0
 10
-213.5774
 20
68.6184
 30
0.0
 10
-213.5774
 20
68.6184
 30
0.0
 10
-212.4728
 20
68.6184
 30
0.0
 10
-211.5774
 20
67.723
 30
0.0
 10
-211.5774
 20
66.6184
 30
0.0
 10
-211.5774
 20
66.6184
 30
0.0
 10
-211.5774
 20
65.5138
 30
0.0
 10
-212.4728
 20
64.6184
 30
0.0
 10
-213.5774
 20
64.6184
 30
0.0
 10
-213.5774
 20
64.6184
 30
0.0
 10
-214.682
 20
64.6184
 30
0.0
 10
-215.5774
 20
65.5138
 30
0.0
 10
-215.5774
 20
66.6184
 30
0.0
  0
SPLINE
  5
B7
330
1F
100
AcDbEntity
  8
Layer 1
 62
   250
370
    20
100
AcDbSpline
210
0.0
220
0.0
230
1.0
 70
    11
 71
     3
 72
    20
 73
    16
 74
     0
 42
0.0000000001
 43
0.0000000001
 12
1.0
 22
0.0
 32
0.0
 13
1.0
 23
0.0
 33
0.0
 40
0.0
 40
0.0
 40
0.0
 40
0.0
 40
0.2
 40
0.2
 40
0.2
 40
0.2
 40
0.4
 40
0.4
 40
0.4
 40
0.4
 40
0.6
 40
0.6
 40
0.6
 40
0.6
 40
1.0
 40
1.0
 40
1.0
 40
1.0
 10
-215.8274
 20
176.6183
 30
0.0
 10
-215.8274
 20
177.861
 30
0.0
 10
-214.8201
 20
178.8683
 30
0.0
 10
-213.5774
 20
178.8683
 30
0.0
 10
-213.5774
 20
178.8683
 30
0.0
 10
-212.3347
 20
178.8683
 30
0.0
 10
-211.3274
 20
177.861
 30
0.0
 10
-211.3274
 20
176.6183
 30
0.0
 10
-211.3274
 20
176.6183
 30
0.0
 10
-211.3274
 20
175.3756
 30
0.0
 10
-212.3347
 20
174.3683
 30
0.0
 10
-213.5774
 20
174.3683
 30
0.0
 10
-213.5774
 20
174.3683
 30
0.0
 10
-214.8201
 20
174.3683
 30
0.0
 10
-215.8274
 20
175.3756
 30
0.0
 10
-215.8274
 20
176.6183
 30
0.0
  0
SPLINE
  5
B8
330
1F
100
AcDbEntity
  8
Layer 1
 62
   250
370
    20
100
AcDbSpline
210
0.0
220
0.0
230
1.0
 70
    11
 71
     3
 72
    20
 73
    16
 74
     0
 42
0.0000000001
 43
0.0000000001
 12
1.0
 22
0.0
 32
0.0
 13
1.0
 23
0.0
 33
0.0
 40
0.0
 40
0.0
 40
0.0
 40
0.0
 40
0.2
 40
0.2
 40
0.2
 40
0.2
 40
0.4
 40
0.4
 40
0.4
 40
0.4
 40
0.6
 40
0.6
 40
0.6
 40
0.6
 40
1.0
 40
1.0
 40
1.0
 40
1.0
 10
-169.3271
 20
66.6184
 30
0.0
 10
-169.3271
 20
67.8611
 30
0.0
 10
-168.3198
 20
68.8684
 30
0.0
 10
-167.0771
 20
68.8684
 30
0.0
 10
-167.0771
 20
68.8684
 30
0.0
 10
-165.8344
 20
68.8684
 30
0.0
 10
-164.8271
 20
67.8611
 30
0.0
 10
-164.8271
 20
66.6184
 30
0.0
 10
-164.8271
 20
66.6184
 30
0.0
 10
-164.8271
 20
65.3757
 30
0.0
 10
-165.8344
 20
64.3685
 30
0.0
 10
-167.0771
 20
64.3684
 30
0.0
 10
-167.0771
 20
64.3684
 30
0.0
 10
-168.3198
 20
64.3684
 30
0.0
 10
-169.3271
 20
65.3757
 30
0.0
 10
-169.3271
 20
66.6184
 30
0.0
  0
SPLINE
  5
B9
330
1F
100
AcDbEntity
  8
Layer 1
 62
   250
370
    20
100
AcDbSpline
210
0.0
220
0.0
230
1.0
 70
    11
 71
     3
 72
    20
 73
    16
 74
     0
 42
0.0000000001
 43
0.0000000001
 12
1.0
 22
0.0
 32
0.0
 13
1.0
 23
0.0
 33
0.0
 40
0.0
 40
0.0
 40
0.0
 40
0.0
 40
0.2
 40
0.2
 40
0.2
 40
0.2
 40
0.4
 40
0.4
 40
0.4
 40
0.4
 40
0.6
 40
0.6
 40
0.6
 40
0.6
 40
1.0
 40
1.0
 40
1.0
 40
1.0
 10
-169.3271
 20
176.6183
 30
0.0
 10
-169.3271
 20
177.861
 30
0.0
 10
-168.3198
 20
178.8683
 30
0.0
 10
-167.0771
 20
178.8683
 30
0.0
 10
-167.0771
 20
178.8683
 30
0.0
 10
-165.8344
 20
178.8683
 30
0.0
 10
-164.8271
 20
177.861
 30
0.0
 10
-164.8271
 20
176.6183
 30
0.0
 10
-164.8271
 20
176.6183
 30
0.0
 10
-164.8271
 20
175.3756
 30
0.0
 10
-165.8344
 20
174.3683
 30
0.0
 10
-167.0771
 20
174.3683
 30
0.0
 10
-167.0771
 20
174.3683
 30
0.0
 10
-168.3198
 20
174.3683
 30
0.0
 10
-169.3271
 20
175.3756
 30
0.0
 10
-169.3271
 20
176.6183
 30
0.0
  0
ENDSEC
  0
SECTION
  2
OBJECTS
  0
DICTIONARY
  5
C
330
0
100
AcDbDictionary
281
     1
  3
ACAD_GROUP
350
D
  3
ACAD_LAYOUT
350
1A
  3
ACAD_MATERIAL
350
3B
  3
ACAD_MLEADERSTYLE
350
DB
  3
ACAD_MLINESTYLE
350
17
  3
ACAD_PLOTSETTINGS
350
19
  3
ACAD_PLOTSTYLENAME
350
E
  3
ACAD_TABLESTYLE
350
DA
  3
ACAD_VISUALSTYLE
350
2A
  0
DICTIONARY
  5
D
102
{ACAD_REACTORS
330
C
102
}
330
C
100
AcDbDictionary
281
     1
  0
DICTIONARY
  5
1A
102
{ACAD_REACTORS
330
C
102
}
330
C
100
AcDbDictionary
281
     1
  3
Layout1
350
1E
  3
Layout2
350
26
  3
Model
350
22
  0
DICTIONARY
  5
3B
102
{ACAD_REACTORS
330
C
102
}
330
C
100
AcDbDictionary
281
     1
  3
ByBlock
350
3D
  3
ByLayer
350
3C
  3
Global
350
3E
  0
DICTIONARY
  5
DB
102
{ACAD_REACTORS
330
C
102
}
330
C
100
AcDbDictionary
281
     1
  0
DICTIONARY
  5
17
102
{ACAD_REACTORS
330
C
102
}
330
C
100
AcDbDictionary
281
     1
  3
Standard
350
18
  0
DICTIONARY
  5
19
102
{ACAD_REACTORS
330
C
102
}
330
C
100
AcDbDictionary
281
     1
  0
ACDBDICTIONARYWDFLT
  5
E
102
{ACAD_REACTORS
330
C
102
}
330
C
100
AcDbDictionary
281
     1
  3
Normal
350
F
100
AcDbDictionaryWithDefault
340
F
  0
DICTIONARY
  5
DA
102
{ACAD_REACTORS
330
C
102
}
330
C
100
AcDbDictionary
281
     1
  0
DICTIONARY
  5
2A
102
{ACAD_REACTORS
330
C
102
}
330
C
100
AcDbDictionary
281
     1
  3
2dWireframe
350
2F
  3
3D Hidden
350
31
  3
3dWireframe
350
30
  3
Basic
350
32
  3
Brighten
350
36
  3
ColorChange
350
3A
  3
Conceptual
350
34
  3
Dim
350
35
  3
Facepattern
350
39
  3
Flat
350
2B
  3
FlatWithEdges
350
2C
  3
Gouraud
350
2D
  3
GouraudWithEdges
350
2E
  3
Linepattern
350
38
  3
Realistic
350
33
  3
Thicken
350
37
  0
LAYOUT
  5
1E
102
{ACAD_REACTORS
330
1A
102
}
330
1A
100
AcDbPlotSettings
  1

  2
none_device
  4

  6

 40
0.0
 41
0.0
 42
0.0
 43
0.0
 44
0.0
 45
0.0
 46
0.0
 47
0.0
 48
0.0
 49
0.0
140
0.0
141
0.0
142
1.0
143
1.0
 70
   688
 72
     0
 73
     0
 74
     5
  7

 75
    16
 76
     0
 77
     2
 78
   300
147
1.0
148
0.0
149
0.0
100
AcDbLayout
  1
Layout1
 70
     1
 71
     1
 10
0.0
 20
0.0
 11
12.0
 21
9.0
 12
0.0
 22
0.0
 32
0.0
 14
1.000000000000000E+20
 24
1.000000000000000E+20
 34
1.000000000000000E+20
 15
-1.000000000000000E+20
 25
-1.000000000000000E+20
 35
-1.000000000000000E+20
146
0.0
 13
0.0
 23
0.0
 33
0.0
 16
1.0
 26
0.0
 36
0.0
 17
0.0
 27
1.0
 37
0.0
 76
     0
330
1B
  0
LAYOUT
  5
26
102
{ACAD_REACTORS
330
1A
102
}
330
1A
100
AcDbPlotSettings
  1

  2
none_device
  4

  6

 40
0.0
 41
0.0
 42
0.0
 43
0.0
 44
0.0
 45
0.0
 46
0.0
 47
0.0
 48
0.0
 49
0.0
140
0.0
141
0.0
142
1.0
143
1.0
 70
   688
 72
     0
 73
     0
 74
     5
  7

 75
    16
 76
     0
 77
     2
 78
   300
147
1.0
148
0.0
149
0.0
100
AcDbLayout
  1
Layout2
 70
     1
 71
     2
 10
0.0
 20
0.0
 11
0.0
 21
0.0
 12
0.0
 22
0.0
 32
0.0
 14
0.0
 24
0.0
 34
0.0
 15
0.0
 25
0.0
 35
0.0
146
0.0
 13
0.0
 23
0.0
 33
0.0
 16
1.0
 26
0.0
 36
0.0
 17
0.0
 27
1.0
 37
0.0
 76
     0
330
23
  0
LAYOUT
  5
22
102
{ACAD_REACTORS
330
1A
102
}
330
1A
100
AcDbPlotSettings
  1

  2
none_device
  4

  6

 40
0.0
 41
0.0
 42
0.0
 43
0.0
 44
0.0
 45
0.0
 46
0.0
 47
0.0
 48
0.0
 49
0.0
140
0.0
141
0.0
142
1.0
143
1.0
 70
  1712
 72
     0
 73
     0
 74
     0
  7

 75
     0
 76
     0
 77
     2
 78
   300
147
1.0
148
0.0
149
0.0
100
AcDbLayout
  1
Model
 70
     1
 71
     0
 10
0.0
 20
0.0
 11
12.0
 21
9.0
 12
0.0
 22
0.0
 32
0.0
 14
-219.5744
 24
-69.6405
 34
0.0
 15
171.1111
 25
180.5618
 35
0.0
146
0.0
 13
0.0
 23
0.0
 33
0.0
 16
1.0
 26
0.0
 36
0.0
 17
0.0
 27
1.0
 37
0.0
 76
     0
330
1F
331
29
  0
MATERIAL
  5
3D
102
{ACAD_REACTORS
330
3B
102
}
330
3B
100
AcDbMaterial
  1
ByBlock
 72
     1
 94
      127
  0
MATERIAL
  5
3C
102
{ACAD_REACTORS
330
3B
102
}
330
3B
100
AcDbMaterial
  1
ByLayer
 72
     1
 94
      127
  0
MATERIAL
  5
3E
102
{ACAD_REACTORS
330
3B
102
}
330
3B
100
AcDbMaterial
  1
Global
 72
     1
 94
      127
  0
MLINESTYLE
  5
18
102
{ACAD_REACTORS
330
17
102
}
330
17
100
AcDbMlineStyle
  2
Standard
 70
     0
  3

 62
   256
 51
90.0
 52
90.0
 71
     2
 49
0.5
 62
   256
  6
BYLAYER
 49
-0.5
 62
   256
  6
BYLAYER
  0
ACDBPLACEHOLDER
  5
F
102
{ACAD_REACTORS
330
E
102
}
330
E
  0
VISUALSTYLE
  5
2F
102
{ACAD_REACTORS
330
2A
102
}
102
{ACAD_XDICTIONARY
360
C2
102
}
330
2A
100
AcDbVisualStyle
  2
2dWireframe
 70
     4
 71
     0
 72
     2
 73
     0
 90
        0
 40
-0.6
 41
-30.0
 62
     5
 63
     7
421
 16777215
 74
     1
 91
        4
 64
     7
 65
   257
 75
     1
175
     1
 42
1.0
 92
        0
 66
   257
 43
1.0
 76
     1
 77
     6
 78
     2
 67
     7
 79
     5
170
     0
171
     0
290
     0
174
     0
 93
        1
 44
0.0
173
     0
291
     0
 45
0.0
  0
VISUALSTYLE
  5
31
102
{ACAD_REACTORS
330
2A
102
}
102
{ACAD_XDICTIONARY
360
C6
102
}
330
2A
100
AcDbVisualStyle
  2
3D Hidden
 70
     6
 71
     1
 72
     2
 73
     2
 90
        0
 40
-0.6
 41
-30.0
 62
     5
 63
     7
421
 16777215
 74
     2
 91
        2
 64
     7
 65
   257
 75
     2
175
     1
 42
40.0
 92
        0
 66
   257
 43
1.0
 76
     1
 77
     6
 78
     2
 67
     7
 79
     3
170
     0
171
     0
290
     0
174
     0
 93
        1
 44
0.0
173
     0
291
     0
 45
0.0
  0
VISUALSTYLE
  5
30
102
{ACAD_REACTORS
330
2A
102
}
102
{ACAD_XDICTIONARY
360
C4
102
}
330
2A
100
AcDbVisualStyle
  2
3dWireframe
 70
     5
 71
     0
 72
     2
 73
     0
 90
        0
 40
-0.6
 41
-30.0
 62
     5
 63
     7
421
 16777215
 74
     1
 91
        4
 64
     7
 65
   257
 75
     1
175
     1
 42
1.0
 92
        0
 66
   257
 43
1.0
 76
     1
 77
     6
 78
     2
 67
     7
 79
     5
170
     0
171
     0
290
     0
174
     0
 93
        1
 44
0.0
173
     0
291
     0
 45
0.0
  0
VISUALSTYLE
  5
32
102
{ACAD_REACTORS
330
2A
102
}
102
{ACAD_XDICTIONARY
360
C8
102
}
330
2A
100
AcDbVisualStyle
  2
Basic
 70
     7
 71
     1
 72
     0
 73
     1
 90
        0
 40
-0.6
 41
-30.0
 62
     5
 63
     7
421
 16777215
 74
     0
 91
        4
 64
     7
 65
   257
 75
     1
175
     1
 42
1.0
 92
        8
 66
     7
 43
1.0
 76
     1
 77
     6
 78
     2
 67
     7
 79
     5
170
     0
171
     0
290
     0
174
     0
 93
        1
 44
0.0
173
     0
291
     1
 45
0.0
  0
VISUALSTYLE
  5
36
102
{ACAD_REACTORS
330
2A
102
}
102
{ACAD_XDICTIONARY
360
D0
102
}
330
2A
100
AcDbVisualStyle
  2
Brighten
 70
    12
 71
     2
 72
     2
 73
     0
 90
        0
 40
-0.6
 41
-30.0
 62
     5
 63
     7
421
 16777215
 74
     1
 91
        4
 64
     7
 65
   257
 75
     1
175
     1
 42
1.0
 92
        8
 66
     7
 43
1.0
 76
     1
 77
     6
 78
     2
 67
     7
 79
     5
170
     0
171
     0
290
     0
174
     0
 93
        1
 44
50.0
173
     0
291
     1
 45
0.0
  0
VISUALSTYLE
  5
3A
102
{ACAD_REACTORS
330
2A
102
}
102
{ACAD_XDICTIONARY
360
D8
102
}
330
2A
100
AcDbVisualStyle
  2
ColorChange
 70
    16
 71
     2
 72
     2
 73
     3
 90
        0
 40
-0.6
 41
-30.0
 62
     5
 63
     8
421
  8421504
 74
     1
 91
        4
 64
     7
 65
   257
 75
     1
175
     1
 42
1.0
 92
        8
 66
     8
424
  8421504
 43
1.0
 76
     1
 77
     6
 78
     2
 67
     7
 79
     5
170
     0
171
     0
290
     0
174
     0
 93
        1
 44
0.0
173
     0
291
     1
 45
0.0
  0
VISUALSTYLE
  5
34
102
{ACAD_REACTORS
330
2A
102
}
102
{ACAD_XDICTIONARY
360
CC
102
}
330
2A
100
AcDbVisualStyle
  2
Conceptual
 70
     9
 71
     3
 72
     2
 73
     0
 90
        0
 40
-0.6
 41
-30.0
 62
     5
 63
     7
421
 16777215
 74
     2
 91
        2
 64
     7
 65
   257
 75
     1
175
     1
 42
40.0
 92
        8
 66
     7
 43
1.0
 76
     1
 77
     6
 78
     2
 67
     7
 79
     3
170
     0
171
     0
290
     0
174
     0
 93
        1
 44
0.0
173
     0
291
     0
 45
0.0
  0
VISUALSTYLE
  5
35
102
{ACAD_REACTORS
330
2A
102
}
102
{ACAD_XDICTIONARY
360
CE
102
}
330
2A
100
AcDbVisualStyle
  2
Dim
 70
    11
 71
     2
 72
     2
 73
     0
 90
        0
 40
-0.6
 41
-30.0
 62
     5
 63
     7
421
 16777215
 74
     1
 91
        4
 64
     7
 65
   257
 75
     1
175
     1
 42
1.0
 92
        8
 66
     7
 43
1.0
 76
     1
 77
     6
 78
     2
 67
     7
 79
     5
170
     0
171
     0
290
     0
174
     0
 93
        1
 44
-50.0
173
     0
291
     1
 45
0.0
  0
VISUALSTYLE
  5
39
102
{ACAD_REACTORS
330
2A
102
}
102
{ACAD_XDICTIONARY
360
D6
102
}
330
2A
100
AcDbVisualStyle
  2
Facepattern
 70
    15
 71
     2
 72
     2
 73
     0
 90
        0
 40
-0.6
 41
-30.0
 62
     5
 63
     7
421
 16777215
 74
     1
 91
        4
 64
     7
 65
   257
 75
     1
175
     1
 42
1.0
 92
        8
 66
     7
 43
1.0
 76
     1
 77
     6
 78
     2
 67
     7
 79
     5
170
     0
171
     0
290
     0
174
     0
 93
        1
 44
0.0
173
     0
291
     1
 45
0.0
  0
VISUALSTYLE
  5
2B
102
{ACAD_REACTORS
330
2A
102
}
102
{ACAD_XDICTIONARY
360
BA
102
}
330
2A
100
AcDbVisualStyle
  2
Flat
 70
     0
 71
     2
 72
     1
 73
     1
 90
        2
 40
-0.6
 41
30.0
 62
     5
 63
     7
421
 16777215
 74
     0
 91
        4
 64
     7
 65
   257
 75
     1
175
     1
 42
1.0
 92
        8
 66
     7
 43
1.0
 76
     1
 77
     6
 78
     2
 67
     7
 79
     5
170
     0
171
     0
290
     0
174
     0
 93
       13
 44
0.0
173
     0
291
     1
 45
0.0
  0
VISUALSTYLE
  5
2C
102
{ACAD_REACTORS
330
2A
102
}
102
{ACAD_XDICTIONARY
360
BC
102
}
330
2A
100
AcDbVisualStyle
  2
FlatWithEdges
 70
     1
 71
     2
 72
     1
 73
     1
 90
        2
 40
-0.6
 41
30.0
 62
     5
 63
     7
421
 16777215
 74
     1
 91
        4
 64
     7
 65
   257
 75
     1
175
     1
 42
1.0
 92
        0
 66
   257
 43
1.0
 76
     1
 77
     6
 78
     2
 67
     7
 79
     5
170
     0
171
     0
290
     0
174
     0
 93
       13
 44
0.0
173
     0
291
     1
 45
0.0
  0
VISUALSTYLE
  5
2D
102
{ACAD_REACTORS
330
2A
102
}
102
{ACAD_XDICTIONARY
360
BE
102
}
330
2A
100
AcDbVisualStyle
  2
Gouraud
 70
     2
 71
     2
 72
     2
 73
     1
 90
        2
 40
-0.6
 41
30.0
 62
     5
 63
     7
421
 16777215
 74
     0
 91
        4
 64
     7
 65
   257
 75
     1
175
     1
 42
1.0
 92
        0
 66
     7
 43
1.0
 76
     1
 77
     6
 78
     2
 67
     7
 79
     5
170
     0
171
     0
290
     0
174
     0
 93
       13
 44
0.0
173
     0
291
     1
 45
0.0
  0
VISUALSTYLE
  5
2E
102
{ACAD_REACTORS
330
2A
102
}
102
{ACAD_XDICTIONARY
360
C0
102
}
330
2A
100
AcDbVisualStyle
  2
GouraudWithEdges
 70
     3
 71
     2
 72
     2
 73
     1
 90
        2
 40
-0.6
 41
30.0
 62
     5
 63
     7
421
 16777215
 74
     1
 91
        4
 64
     7
 65
   257
 75
     1
175
     1
 42
1.0
 92
        0
 66
   257
 43
1.0
 76
     1
 77
     6
 78
     2
 67
     7
 79
     5
170
     0
171
     0
290
     0
174
     0
 93
       13
 44
0.0
173
     0
291
     1
 45
0.0
  0
VISUALSTYLE
  5
38
102
{ACAD_REACTORS
330
2A
102
}
102
{ACAD_XDICTIONARY
360
D4
102
}
330
2A
100
AcDbVisualStyle
  2
Linepattern
 70
    14
 71
     2
 72
     2
 73
     0
 90
        0
 40
-0.6
 41
-30.0
 62
     5
 63
     7
421
 16777215
 74
     1
 91
        4
 64
     7
 65
   257
 75
     7
175
     7
 42
1.0
 92
        8
 66
     7
 43
1.0
 76
     1
 77
     6
 78
     2
 67
     7
 79
     5
170
     0
171
     0
290
     0
174
     0
 93
        1
 44
0.0
173
     0
291
     1
 45
0.0
  0
VISUALSTYLE
  5
33
102
{ACAD_REACTORS
330
2A
102
}
102
{ACAD_XDICTIONARY
360
CA
102
}
330
2A
100
AcDbVisualStyle
  2
Realistic
 70
     8
 71
     2
 72
     2
 73
     0
 90
        0
 40
-0.6
 41
-30.0
 62
     5
 63
     7
421
 16777215
 74
     1
 91
        0
 64
     7
 65
   257
 75
     1
175
     1
 42
1.0
 92
        8
 66
     8
424
  7895160
 43
1.0
 76
     1
 77
     6
 78
     2
 67
     7
 79
     5
170
     0
171
     0
290
     0
174
     0
 93
       13
 44
0.0
173
     0
291
     0
 45
0.0
  0
VISUALSTYLE
  5
37
102
{ACAD_REACTORS
330
2A
102
}
102
{ACAD_XDICTIONARY
360
D2
102
}
330
2A
100
AcDbVisualStyle
  2
Thicken
 70
    13
 71
     2
 72
     2
 73
     0
 90
        0
 40
-0.6
 41
-30.0
 62
     5
 63
     7
421
 16777215
 74
     1
 91
        4
 64
     7
 65
   257
 75
     1
175
     1
 42
1.0
 92
       12
 66
     7
 43
1.0
 76
     1
 77
     6
 78
     2
 67
     7
 79
     5
170
     0
171
     0
290
     0
174
     0
 93
        1
 44
0.0
173
     0
291
     1
 45
0.0
  0
DICTIONARY
  5
C2
330
2F
100
AcDbDictionary
280
     1
281
     1
  3
ACAD_XREC_ROUNDTRIP
360
C3
  0
DICTIONARY
  5
C6
330
31
100
AcDbDictionary
280
     1
281
     1
  3
ACAD_XREC_ROUNDTRIP
360
C7
  0
DICTIONARY
  5
C4
330
30
100
AcDbDictionary
280
     1
281
     1
  3
ACAD_XREC_ROUNDTRIP
360
C5
  0
DICTIONARY
  5
C8
330
32
100
AcDbDictionary
280
     1
281
     1
  3
ACAD_XREC_ROUNDTRIP
360
C9
  0
DICTIONARY
  5
D0
330
36
100
AcDbDictionary
280
     1
281
     1
  3
ACAD_XREC_ROUNDTRIP
360
D1
  0
DICTIONARY
  5
D8
330
3A
100
AcDbDictionary
280
     1
281
     1
  3
ACAD_XREC_ROUNDTRIP
360
D9
  0
DICTIONARY
  5
CC
330
34
100
AcDbDictionary
280
     1
281
     1
  3
ACAD_XREC_ROUNDTRIP
360
CD
  0
DICTIONARY
  5
CE
330
35
100
AcDbDictionary
280
     1
281
     1
  3
ACAD_XREC_ROUNDTRIP
360
CF
  0
DICTIONARY
  5
D6
330
39
100
AcDbDictionary
280
     1
281
     1
  3
ACAD_XREC_ROUNDTRIP
360
D7
  0
DICTIONARY
  5
BA
330
2B
100
AcDbDictionary
280
     1
281
     1
  3
ACAD_XREC_ROUNDTRIP
360
BB
  0
DICTIONARY
  5
BC
330
2C
100
AcDbDictionary
280
     1
281
     1
  3
ACAD_XREC_ROUNDTRIP
360
BD
  0
DICTIONARY
  5
BE
330
2D
100
AcDbDictionary
280
     1
281
     1
  3
ACAD_XREC_ROUNDTRIP
360
BF
  0
DICTIONARY
  5
C0
330
2E
100
AcDbDictionary
280
     1
281
     1
  3
ACAD_XREC_ROUNDTRIP
360
C1
  0
DICTIONARY
  5
D4
330
38
100
AcDbDictionary
280
     1
281
     1
  3
ACAD_XREC_ROUNDTRIP
360
D5
  0
DICTIONARY
  5
CA
330
33
100
AcDbDictionary
280
     1
281
     1
  3
ACAD_XREC_ROUNDTRIP
360
CB
  0
DICTIONARY
  5
D2
330
37
100
AcDbDictionary
280
     1
281
     1
  3
ACAD_XREC_ROUNDTRIP
360
D3
  0
XRECORD
  5
C3
102
{ACAD_REACTORS
330
C2
102
}
330
C2
100
AcDbXrecord
280
     1
102
RTVSPropertyOp0
 70
     1
102
RTVSPropertyOp1
 70
     1
102
RTVSPropertyOp2
 70
     1
102
RTVSPropertyOp3
 70
     1
102
RTVSPropertyOp4
 70
     1
102
RTVSPropertyOp5
 70
     1
102
RTVSPropertyOp6
 70
     1
102
RTVSPropertyOp7
 70
     1
102
RTVSPropertyOp8
 70
     1
102
RTVSPropertyOp9
 70
     1
102
RTVSPropertyOp10
 70
     1
102
RTVSPropertyOp11
 70
     1
102
RTVSPropertyOp12
 70
     1
102
RTVSPropertyOp13
 70
     1
102
RTVSPropertyOp14
 70
     1
102
RTVSPropertyOp15
 70
     1
102
RTVSPropertyOp16
 70
     1
102
RTVSPropertyOp17
 70
     1
102
RTVSPropertyOp18
 70
     1
102
RTVSPropertyOp19
 70
     1
102
RTVSPropertyOp20
 70
     1
102
RTVSPropertyOp21
 70
     1
102
RTVSPropertyOp22
 70
     1
102
RTVSPropertyOp23
 70
     1
102
RTVSPropertyOp24
 70
     1
102
RTVSPropertyOp25
 70
     1
102
RTVSPropertyOp26
 70
     1
102
RTVSPropertyOp27
 70
     1
102
RTVSPropertyOp28
 70
     1
102
RTVSPropertyOp29
 70
     1
102
RTVSPropertyOp30
 70
     1
102
RTVSPropertyOp31
 70
     1
102
RTVSPropertyOp32
 70
     1
  0
XRECORD
  5
C7
102
{ACAD_REACTORS
330
C6
102
}
330
C6
100
AcDbXrecord
280
     1
102
RTVSPropertyOp0
 70
     1
102
RTVSPropertyOp1
 70
     1
102
RTVSPropertyOp2
 70
     1
102
RTVSPropertyOp3
 70
     1
102
RTVSPropertyOp4
 70
     1
102
RTVSPropertyOp5
 70
     1
102
RTVSPropertyOp6
 70
     1
102
RTVSPropertyOp7
 70
     1
102
RTVSPropertyOp8
 70
     1
102
RTVSPropertyOp9
 70
     1
102
RTVSPropertyOp10
 70
     1
102
RTVSPropertyOp11
 70
     1
102
RTVSPropertyOp12
 70
     1
102
RTVSPropertyOp13
 70
     1
102
RTVSPropertyOp14
 70
     1
102
RTVSPropertyOp15
 70
     1
102
RTVSPropertyOp16
 70
     1
102
RTVSPropertyOp17
 70
     1
102
RTVSPropertyOp18
 70
     1
102
RTVSPropertyOp19
 70
     1
102
RTVSPropertyOp20
 70
     1
102
RTVSPropertyOp21
 70
     1
102
RTVSPropertyOp22
 70
     1
102
RTVSPropertyOp23
 70
     1
102
RTVSPropertyOp24
 70
     1
102
RTVSPropertyOp25
 70
     1
102
RTVSPropertyOp26
 70
     1
102
RTVSPropertyOp27
 70
     1
102
RTVSPropertyOp28
 70
     1
102
RTVSPropertyOp29
 70
     1
102
RTVSPropertyOp30
 70
     1
102
RTVSPropertyOp31
 70
     1
102
RTVSPropertyOp32
 70
     1
  0
XRECORD
  5
C5
102
{ACAD_REACTORS
330
C4
102
}
330
C4
100
AcDbXrecord
280
     1
102
RTVSPropertyOp0
 70
     1
102
RTVSPropertyOp1
 70
     1
102
RTVSPropertyOp2
 70
     1
102
RTVSPropertyOp3
 70
     1
102
RTVSPropertyOp4
 70
     1
102
RTVSPropertyOp5
 70
     1
102
RTVSPropertyOp6
 70
     1
102
RTVSPropertyOp7
 70
     1
102
RTVSPropertyOp8
 70
     1
102
RTVSPropertyOp9
 70
     1
102
RTVSPropertyOp10
 70
     1
102
RTVSPropertyOp11
 70
     1
102
RTVSPropertyOp12
 70
     1
102
RTVSPropertyOp13
 70
     1
102
RTVSPropertyOp14
 70
     1
102
RTVSPropertyOp15
 70
     1
102
RTVSPropertyOp16
 70
     1
102
RTVSPropertyOp17
 70
     1
102
RTVSPropertyOp18
 70
     1
102
RTVSPropertyOp19
 70
     1
102
RTVSPropertyOp20
 70
     1
102
RTVSPropertyOp21
 70
     1
102
RTVSPropertyOp22
 70
     1
102
RTVSPropertyOp23
 70
     1
102
RTVSPropertyOp24
 70
     1
102
RTVSPropertyOp25
 70
     1
102
RTVSPropertyOp26
 70
     1
102
RTVSPropertyOp27
 70
     1
102
RTVSPropertyOp28
 70
     1
102
RTVSPropertyOp29
 70
     1
102
RTVSPropertyOp30
 70
     1
102
RTVSPropertyOp31
 70
     1
102
RTVSPropertyOp32
 70
     1
  0
XRECORD
  5
C9
102
{ACAD_REACTORS
330
C8
102
}
330
C8
100
AcDbXrecord
280
     1
102
RTVSPropertyOp0
 70
     1
102
RTVSPropertyOp1
 70
     1
102
RTVSPropertyOp2
 70
     1
102
RTVSPropertyOp3
 70
     1
102
RTVSPropertyOp4
 70
     1
102
RTVSPropertyOp5
 70
     1
102
RTVSPropertyOp6
 70
     1
102
RTVSPropertyOp7
 70
     1
102
RTVSPropertyOp8
 70
     1
102
RTVSPropertyOp9
 70
     1
102
RTVSPropertyOp10
 70
     1
102
RTVSPropertyOp11
 70
     1
102
RTVSPropertyOp12
 70
     1
102
RTVSPropertyOp13
 70
     1
102
RTVSPropertyOp14
 70
     1
102
RTVSPropertyOp15
 70
     1
102
RTVSPropertyOp16
 70
     1
102
RTVSPropertyOp17
 70
     1
102
RTVSPropertyOp18
 70
     1
102
RTVSPropertyOp19
 70
     1
102
RTVSPropertyOp20
 70
     1
102
RTVSPropertyOp21
 70
     1
102
RTVSPropertyOp22
 70
     1
102
RTVSPropertyOp23
 70
     1
102
RTVSPropertyOp24
 70
     1
102
RTVSPropertyOp25
 70
     1
102
RTVSPropertyOp26
 70
     1
102
RTVSPropertyOp27
 70
     1
102
RTVSPropertyOp28
 70
     1
102
RTVSPropertyOp29
 70
     1
102
RTVSPropertyOp30
 70
     1
102
RTVSPropertyOp31
 70
     1
102
RTVSPropertyOp32
 70
     1
  0
XRECORD
  5
D1
102
{ACAD_REACTORS
330
D0
102
}
330
D0
100
AcDbXrecord
280
     1
102
RTVSPropertyOp0
 70
     1
102
RTVSPropertyOp1
 70
     1
102
RTVSPropertyOp2
 70
     1
102
RTVSPropertyOp3
 70
     1
102
RTVSPropertyOp4
 70
     1
102
RTVSPropertyOp5
 70
     1
102
RTVSPropertyOp6
 70
     1
102
RTVSPropertyOp7
 70
     1
102
RTVSPropertyOp8
 70
     1
102
RTVSPropertyOp9
 70
     1
102
RTVSPropertyOp10
 70
     1
102
RTVSPropertyOp11
 70
     1
102
RTVSPropertyOp12
 70
     1
102
RTVSPropertyOp13
 70
     1
102
RTVSPropertyOp14
 70
     1
102
RTVSPropertyOp15
 70
     1
102
RTVSPropertyOp16
 70
     1
102
RTVSPropertyOp17
 70
     1
102
RTVSPropertyOp18
 70
     1
102
RTVSPropertyOp19
 70
     1
102
RTVSPropertyOp20
 70
     1
102
RTVSPropertyOp21
 70
     1
102
RTVSPropertyOp22
 70
     1
102
RTVSPropertyOp23
 70
     1
102
RTVSPropertyOp24
 70
     1
102
RTVSPropertyOp25
 70
     1
102
RTVSPropertyOp26
 70
     1
102
RTVSPropertyOp27
 70
     1
102
RTVSPropertyOp28
 70
     1
102
RTVSPropertyOp29
 70
     1
102
RTVSPropertyOp30
 70
     1
102
RTVSPropertyOp31
 70
     1
102
RTVSPropertyOp32
 70
     1
  0
XRECORD
  5
D9
102
{ACAD_REACTORS
330
D8
102
}
330
D8
100
AcDbXrecord
280
     1
102
RTVSPropertyOp0
 70
     1
102
RTVSPropertyOp1
 70
     1
102
RTVSPropertyOp2
 70
     1
102
RTVSPropertyOp3
 70
     1
102
RTVSPropertyOp4
 70
     1
102
RTVSPropertyOp5
 70
     1
102
RTVSPropertyOp6
 70
     1
102
RTVSPropertyOp7
 70
     1
102
RTVSPropertyOp8
 70
     1
102
RTVSPropertyOp9
 70
     1
102
RTVSPropertyOp10
 70
     1
102
RTVSPropertyOp11
 70
     1
102
RTVSPropertyOp12
 70
     1
102
RTVSPropertyOp13
 70
     1
102
RTVSPropertyOp14
 70
     1
102
RTVSPropertyOp15
 70
     1
102
RTVSPropertyOp16
 70
     1
102
RTVSPropertyOp17
 70
     1
102
RTVSPropertyOp18
 70
     1
102
RTVSPropertyOp19
 70
     1
102
RTVSPropertyOp20
 70
     1
102
RTVSPropertyOp21
 70
     1
102
RTVSPropertyOp22
 70
     1
102
RTVSPropertyOp23
 70
     1
102
RTVSPropertyOp24
 70
     1
102
RTVSPropertyOp25
 70
     1
102
RTVSPropertyOp26
 70
     1
102
RTVSPropertyOp27
 70
     1
102
RTVSPropertyOp28
 70
     1
102
RTVSPropertyOp29
 70
     1
102
RTVSPropertyOp30
 70
     1
102
RTVSPropertyOp31
 70
     1
102
RTVSPropertyOp32
 70
     1
  0
XRECORD
  5
CD
102
{ACAD_REACTORS
330
CC
102
}
330
CC
100
AcDbXrecord
280
     1
102
RTVSPropertyOp0
 70
     1
102
RTVSPropertyOp1
 70
     1
102
RTVSPropertyOp2
 70
     1
102
RTVSPropertyOp3
 70
     1
102
RTVSPropertyOp4
 70
     1
102
RTVSPropertyOp5
 70
     1
102
RTVSPropertyOp6
 70
     1
102
RTVSPropertyOp7
 70
     1
102
RTVSPropertyOp8
 70
     1
102
RTVSPropertyOp9
 70
     1
102
RTVSPropertyOp10
 70
     1
102
RTVSPropertyOp11
 70
     1
102
RTVSPropertyOp12
 70
     1
102
RTVSPropertyOp13
 70
     1
102
RTVSPropertyOp14
 70
     1
102
RTVSPropertyOp15
 70
     1
102
RTVSPropertyOp16
 70
     1
102
RTVSPropertyOp17
 70
     1
102
RTVSPropertyOp18
 70
     1
102
RTVSPropertyOp19
 70
     1
102
RTVSPropertyOp20
 70
     1
102
RTVSPropertyOp21
 70
     1
102
RTVSPropertyOp22
 70
     1
102
RTVSPropertyOp23
 70
     1
102
RTVSPropertyOp24
 70
     1
102
RTVSPropertyOp25
 70
     1
102
RTVSPropertyOp26
 70
     1
102
RTVSPropertyOp27
 70
     1
102
RTVSPropertyOp28
 70
     1
102
RTVSPropertyOp29
 70
     1
102
RTVSPropertyOp30
 70
     1
102
RTVSPropertyOp31
 70
     1
102
RTVSPropertyOp32
 70
     1
  0
XRECORD
  5
CF
102
{ACAD_REACTORS
330
CE
102
}
330
CE
100
AcDbXrecord
280
     1
102
RTVSPropertyOp0
 70
     1
102
RTVSPropertyOp1
 70
     1
102
RTVSPropertyOp2
 70
     1
102
RTVSPropertyOp3
 70
     1
102
RTVSPropertyOp4
 70
     1
102
RTVSPropertyOp5
 70
     1
102
RTVSPropertyOp6
 70
     1
102
RTVSPropertyOp7
 70
     1
102
RTVSPropertyOp8
 70
     1
102
RTVSPropertyOp9
 70
     1
102
RTVSPropertyOp10
 70
     1
102
RTVSPropertyOp11
 70
     1
102
RTVSPropertyOp12
 70
     1
102
RTVSPropertyOp13
 70
     1
102
RTVSPropertyOp14
 70
     1
102
RTVSPropertyOp15
 70
     1
102
RTVSPropertyOp16
 70
     1
102
RTVSPropertyOp17
 70
     1
102
RTVSPropertyOp18
 70
     1
102
RTVSPropertyOp19
 70
     1
102
RTVSPropertyOp20
 70
     1
102
RTVSPropertyOp21
 70
     1
102
RTVSPropertyOp22
 70
     1
102
RTVSPropertyOp23
 70
     1
102
RTVSPropertyOp24
 70
     1
102
RTVSPropertyOp25
 70
     1
102
RTVSPropertyOp26
 70
     1
102
RTVSPropertyOp27
 70
     1
102
RTVSPropertyOp28
 70
     1
102
RTVSPropertyOp29
 70
     1
102
RTVSPropertyOp30
 70
     1
102
RTVSPropertyOp31
 70
     1
102
RTVSPropertyOp32
 70
     1
  0
XRECORD
  5
D7
102
{ACAD_REACTORS
330
D6
102
}
330
D6
100
AcDbXrecord
280
     1
102
RTVSPropertyOp0
 70
     1
102
RTVSPropertyOp1
 70
     1
102
RTVSPropertyOp2
 70
     1
102
RTVSPropertyOp3
 70
     1
102
RTVSPropertyOp4
 70
     1
102
RTVSPropertyOp5
 70
     1
102
RTVSPropertyOp6
 70
     1
102
RTVSPropertyOp7
 70
     1
102
RTVSPropertyOp8
 70
     1
102
RTVSPropertyOp9
 70
     1
102
RTVSPropertyOp10
 70
     1
102
RTVSPropertyOp11
 70
     1
102
RTVSPropertyOp12
 70
     1
102
RTVSPropertyOp13
 70
     1
102
RTVSPropertyOp14
 70
     1
102
RTVSPropertyOp15
 70
     1
102
RTVSPropertyOp16
 70
     1
102
RTVSPropertyOp17
 70
     1
102
RTVSPropertyOp18
 70
     1
102
RTVSPropertyOp19
 70
     1
102
RTVSPropertyOp20
 70
     1
102
RTVSPropertyOp21
 70
     1
102
RTVSPropertyOp22
 70
     1
102
RTVSPropertyOp23
 70
     1
102
RTVSPropertyOp24
 70
     1
102
RTVSPropertyOp25
 70
     1
102
RTVSPropertyOp26
 70
     1
102
RTVSPropertyOp27
 70
     1
102
RTVSPropertyOp28
 70
     1
102
RTVSPropertyOp29
 70
     1
102
RTVSPropertyOp30
 70
     1
102
RTVSPropertyOp31
 70
     1
102
RTVSPropertyOp32
 70
     1
  0
XRECORD
  5
BB
102
{ACAD_REACTORS
330
BA
102
}
330
BA
100
AcDbXrecord
280
     1
102
RTVSPropertyOp0
 70
     1
102
RTVSPropertyOp1
 70
     1
102
RTVSPropertyOp2
 70
     1
102
RTVSPropertyOp3
 70
     1
102
RTVSPropertyOp4
 70
     1
102
RTVSPropertyOp5
 70
     1
102
RTVSPropertyOp6
 70
     1
102
RTVSPropertyOp7
 70
     1
102
RTVSPropertyOp8
 70
     1
102
RTVSPropertyOp9
 70
     1
102
RTVSPropertyOp10
 70
     1
102
RTVSPropertyOp11
 70
     1
102
RTVSPropertyOp12
 70
     1
102
RTVSPropertyOp13
 70
     1
102
RTVSPropertyOp14
 70
     1
102
RTVSPropertyOp15
 70
     1
102
RTVSPropertyOp16
 70
     1
102
RTVSPropertyOp17
 70
     1
102
RTVSPropertyOp18
 70
     1
102
RTVSPropertyOp19
 70
     1
102
RTVSPropertyOp20
 70
     1
102
RTVSPropertyOp21
 70
     1
102
RTVSPropertyOp22
 70
     1
102
RTVSPropertyOp23
 70
     1
102
RTVSPropertyOp24
 70
     1
102
RTVSPropertyOp25
 70
     1
102
RTVSPropertyOp26
 70
     1
102
RTVSPropertyOp27
 70
     1
102
RTVSPropertyOp28
 70
     1
102
RTVSPropertyOp29
 70
     1
102
RTVSPropertyOp30
 70
     1
102
RTVSPropertyOp31
 70
     1
102
RTVSPropertyOp32
 70
     1
  0
XRECORD
  5
BD
102
{ACAD_REACTORS
330
BC
102
}
330
BC
100
AcDbXrecord
280
     1
102
RTVSPropertyOp0
 70
     1
102
RTVSPropertyOp1
 70
     1
102
RTVSPropertyOp2
 70
     1
102
RTVSPropertyOp3
 70
     1
102
RTVSPropertyOp4
 70
     1
102
RTVSPropertyOp5
 70
     1
102
RTVSPropertyOp6
 70
     1
102
RTVSPropertyOp7
 70
     1
102
RTVSPropertyOp8
 70
     1
102
RTVSPropertyOp9
 70
     1
102
RTVSPropertyOp10
 70
     1
102
RTVSPropertyOp11
 70
     1
102
RTVSPropertyOp12
 70
     1
102
RTVSPropertyOp13
 70
     1
102
RTVSPropertyOp14
 70
     1
102
RTVSPropertyOp15
 70
     1
102
RTVSPropertyOp16
 70
     1
102
RTVSPropertyOp17
 70
     1
102
RTVSPropertyOp18
 70
     1
102
RTVSPropertyOp19
 70
     1
102
RTVSPropertyOp20
 70
     1
102
RTVSPropertyOp21
 70
     1
102
RTVSPropertyOp22
 70
     1
102
RTVSPropertyOp23
 70
     1
102
RTVSPropertyOp24
 70
     1
102
RTVSPropertyOp25
 70
     1
102
RTVSPropertyOp26
 70
     1
102
RTVSPropertyOp27
 70
     1
102
RTVSPropertyOp28
 70
     1
102
RTVSPropertyOp29
 70
     1
102
RTVSPropertyOp30
 70
     1
102
RTVSPropertyOp31
 70
     1
102
RTVSPropertyOp32
 70
     1
  0
XRECORD
  5
BF
102
{ACAD_REACTORS
330
BE
102
}
330
BE
100
AcDbXrecord
280
     1
102
RTVSPropertyOp0
 70
     1
102
RTVSPropertyOp1
 70
     1
102
RTVSPropertyOp2
 70
     1
102
RTVSPropertyOp3
 70
     1
102
RTVSPropertyOp4
 70
     1
102
RTVSPropertyOp5
 70
     1
102
RTVSPropertyOp6
 70
     1
102
RTVSPropertyOp7
 70
     1
102
RTVSPropertyOp8
 70
     1
102
RTVSPropertyOp9
 70
     1
102
RTVSPropertyOp10
 70
     1
102
RTVSPropertyOp11
 70
     1
102
RTVSPropertyOp12
 70
     1
102
RTVSPropertyOp13
 70
     1
102
RTVSPropertyOp14
 70
     1
102
RTVSPropertyOp15
 70
     1
102
RTVSPropertyOp16
 70
     1
102
RTVSPropertyOp17
 70
     1
102
RTVSPropertyOp18
 70
     1
102
RTVSPropertyOp19
 70
     1
102
RTVSPropertyOp20
 70
     1
102
RTVSPropertyOp21
 70
     1
102
RTVSPropertyOp22
 70
     1
102
RTVSPropertyOp23
 70
     1
102
RTVSPropertyOp24
 70
     1
102
RTVSPropertyOp25
 70
     1
102
RTVSPropertyOp26
 70
     1
102
RTVSPropertyOp27
 70
     1
102
RTVSPropertyOp28
 70
     1
102
RTVSPropertyOp29
 70
     1
102
RTVSPropertyOp30
 70
     1
102
RTVSPropertyOp31
 70
     1
102
RTVSPropertyOp32
 70
     1
  0
XRECORD
  5
C1
102
{ACAD_REACTORS
330
C0
102
}
330
C0
100
AcDbXrecord
280
     1
102
RTVSPropertyOp0
 70
     1
102
RTVSPropertyOp1
 70
     1
102
RTVSPropertyOp2
 70
     1
102
RTVSPropertyOp3
 70
     1
102
RTVSPropertyOp4
 70
     1
102
RTVSPropertyOp5
 70
     1
102
RTVSPropertyOp6
 70
     1
102
RTVSPropertyOp7
 70
     1
102
RTVSPropertyOp8
 70
     1
102
RTVSPropertyOp9
 70
     1
102
RTVSPropertyOp10
 70
     1
102
RTVSPropertyOp11
 70
     1
102
RTVSPropertyOp12
 70
     1
102
RTVSPropertyOp13
 70
     1
102
RTVSPropertyOp14
 70
     1
102
RTVSPropertyOp15
 70
     1
102
RTVSPropertyOp16
 70
     1
102
RTVSPropertyOp17
 70
     1
102
RTVSPropertyOp18
 70
     1
102
RTVSPropertyOp19
 70
     1
102
RTVSPropertyOp20
 70
     1
102
RTVSPropertyOp21
 70
     1
102
RTVSPropertyOp22
 70
     1
102
RTVSPropertyOp23
 70
     1
102
RTVSPropertyOp24
 70
     1
102
RTVSPropertyOp25
 70
     1
102
RTVSPropertyOp26
 70
     1
102
RTVSPropertyOp27
 70
     1
102
RTVSPropertyOp28
 70
     1
102
RTVSPropertyOp29
 70
     1
102
RTVSPropertyOp30
 70
     1
102
RTVSPropertyOp31
 70
     1
102
RTVSPropertyOp32
 70
     1
  0
XRECORD
  5
D5
102
{ACAD_REACTORS
330
D4
102
}
330
D4
100
AcDbXrecord
280
     1
102
RTVSPropertyOp0
 70
     1
102
RTVSPropertyOp1
 70
     1
102
RTVSPropertyOp2
 70
     1
102
RTVSPropertyOp3
 70
     1
102
RTVSPropertyOp4
 70
     1
102
RTVSPropertyOp5
 70
     1
102
RTVSPropertyOp6
 70
     1
102
RTVSPropertyOp7
 70
     1
102
RTVSPropertyOp8
 70
     1
102
RTVSPropertyOp9
 70
     1
102
RTVSPropertyOp10
 70
     1
102
RTVSPropertyOp11
 70
     1
102
RTVSPropertyOp12
 70
     1
102
RTVSPropertyOp13
 70
     1
102
RTVSPropertyOp14
 70
     1
102
RTVSPropertyOp15
 70
     1
102
RTVSPropertyOp16
 70
     1
102
RTVSPropertyOp17
 70
     1
102
RTVSPropertyOp18
 70
     1
102
RTVSPropertyOp19
 70
     1
102
RTVSPropertyOp20
 70
     1
102
RTVSPropertyOp21
 70
     1
102
RTVSPropertyOp22
 70
     1
102
RTVSPropertyOp23
 70
     1
102
RTVSPropertyOp24
 70
     1
102
RTVSPropertyOp25
 70
     1
102
RTVSPropertyOp26
 70
     1
102
RTVSPropertyOp27
 70
     1
102
RTVSPropertyOp28
 70
     1
102
RTVSPropertyOp29
 70
     1
102
RTVSPropertyOp30
 70
     1
102
RTVSPropertyOp31
 70
     1
102
RTVSPropertyOp32
 70
     1
  0
XRECORD
  5
CB
102
{ACAD_REACTORS
330
CA
102
}
330
CA
100
AcDbXrecord
280
     1
102
RTVSPropertyOp0
 70
     1
102
RTVSPropertyOp1
 70
     1
102
RTVSPropertyOp2
 70
     1
102
RTVSPropertyOp3
 70
     1
102
RTVSPropertyOp4
 70
     1
102
RTVSPropertyOp5
 70
     1
102
RTVSPropertyOp6
 70
     1
102
RTVSPropertyOp7
 70
     1
102
RTVSPropertyOp8
 70
     1
102
RTVSPropertyOp9
 70
     1
102
RTVSPropertyOp10
 70
     1
102
RTVSPropertyOp11
 70
     1
102
RTVSPropertyOp12
 70
     1
102
RTVSPropertyOp13
 70
     1
102
RTVSPropertyOp14
 70
     1
102
RTVSPropertyOp15
 70
     1
102
RTVSPropertyOp16
 70
     1
102
RTVSPropertyOp17
 70
     1
102
RTVSPropertyOp18
 70
     1
102
RTVSPropertyOp19
 70
     1
102
RTVSPropertyOp20
 70
     1
102
RTVSPropertyOp21
 70
     1
102
RTVSPropertyOp22
 70
     1
102
RTVSPropertyOp23
 70
     1
102
RTVSPropertyOp24
 70
     1
102
RTVSPropertyOp25
 70
     1
102
RTVSPropertyOp26
 70
     1
102
RTVSPropertyOp27
 70
     1
102
RTVSPropertyOp28
 70
     1
102
RTVSPropertyOp29
 70
     1
102
RTVSPropertyOp30
 70
     1
102
RTVSPropertyOp31
 70
     1
102
RTVSPropertyOp32
 70
     1
  0
XRECORD
  5
D3
102
{ACAD_REACTORS
330
D2
102
}
330
D2
100
AcDbXrecord
280
     1
102
RTVSPropertyOp0
 70
     1
102
RTVSPropertyOp1
 70
     1
102
RTVSPropertyOp2
 70
     1
102
RTVSPropertyOp3
 70
     1
102
RTVSPropertyOp4
 70
     1
102
RTVSPropertyOp5
 70
     1
102
RTVSPropertyOp6
 70
     1
102
RTVSPropertyOp7
 70
     1
102
RTVSPropertyOp8
 70
     1
102
RTVSPropertyOp9
 70
     1
102
RTVSPropertyOp10
 70
     1
102
RTVSPropertyOp11
 70
     1
102
RTVSPropertyOp12
 70
     1
102
RTVSPropertyOp13
 70
     1
102
RTVSPropertyOp14
 70
     1
102
RTVSPropertyOp15
 70
     1
102
RTVSPropertyOp16
 70
     1
102
RTVSPropertyOp17
 70
     1
102
RTVSPropertyOp18
 70
     1
102
RTVSPropertyOp19
 70
     1
102
RTVSPropertyOp20
 70
     1
102
RTVSPropertyOp21
 70
     1
102
RTVSPropertyOp22
 70
     1
102
RTVSPropertyOp23
 70
     1
102
RTVSPropertyOp24
 70
     1
102
RTVSPropertyOp25
 70
     1
102
RTVSPropertyOp26
 70
     1
102
RTVSPropertyOp27
 70
     1
102
RTVSPropertyOp28
 70
     1
102
RTVSPropertyOp29
 70
     1
102
RTVSPropertyOp30
 70
     1
102
RTVSPropertyOp31
 70
     1
102
RTVSPropertyOp32
 70
     1
  0
ENDSEC
  0
EOF
